<svg xmlns="http://www.w3.org/2000/svg" viewBox="0 0 750 500"><defs><style>.cls-1{isolation:isolate;}.cls-2{fill:#f8e9d3;}.cls-3{fill:#ead5b9;}.cls-4{fill:#dbbf9f;}.cls-5{fill:#b11722;}.cls-26,.cls-6{opacity:0.5;}.cls-6{mix-blend-mode:multiply;}.cls-7{fill:#e05042;}.cls-8{fill:#291d2c;}.cls-9{fill:#1e453e;}.cls-10{fill:#fff;}.cls-11{fill:#396c61;}.cls-12{fill:#ff7c66;}.cls-13{fill:#f69d84;}.cls-14{opacity:0.8;}.cls-15{fill:#f4ad4b;}.cls-16{fill:#d57635;}.cls-17{fill:#564c54;}.cls-18{fill:#7d529a;}.cls-19{fill:#46235f;}.cls-20{fill:#b98fe5;}.cls-21{fill:#e8d2ff;}.cls-22{fill:#26120c;}.cls-23{fill:#39252b;}.cls-24{fill:#7f5c55;}.cls-25{fill:#644946;}.cls-27{fill:#dddac7;}.cls-28{fill:#ddbba3;}.cls-29{fill:#5f4b5b;}.cls-30{fill:#f28f79;}</style></defs><g class="cls-1"><g id="BACKGROUND"><rect class="cls-2" width="750" height="500"/></g><g id="OBJECTS"><path class="cls-3" d="M396.83,185.67A152.32,152.32,0,0,1,328.92,158c-30-21.74-92.76-58.72-152.63-40.3-82.59,25.41-83,98.93-61.45,138.86S288.9,413.47,486.67,394.86c177-16.65,211.47-207.24,117.08-241.72C521.88,123.22,494,199.44,396.83,185.67Z"/><path class="cls-3" d="M211.47,342.3s-12.35-5.65-17.17,4.17,12.81,19.88,22.41,17S224.62,346.1,211.47,342.3Z"/><path class="cls-3" d="M571,119.74s-12.85-1.52-14.37,8.79,17.42,14.3,25.28,8.88S584,119.37,571,119.74Z"/><ellipse class="cls-4" cx="375.28" cy="450.74" rx="123.87" ry="6.46"/><polygon class="cls-5" points="418.69 412.86 418.69 450.74 434.41 450.74 443.39 418.54 446.72 406.62 418.69 412.86"/><g class="cls-6"><path class="cls-5" d="M418.69,412.86v9.67c7.13-.79,17.29-2.59,24.7-4l3.33-11.93Z"/></g><polygon class="cls-5" points="330.17 412.86 330.17 450.74 314.45 450.74 305.47 418.54 302.14 406.62 330.17 412.86"/><g class="cls-6"><path class="cls-5" d="M330.17,412.86v9.67c-7.13-.79-17.29-2.59-24.7-4l-3.33-11.93Z"/></g><path class="cls-7" d="M257.37,189.46c1.52,16,14.94,74.18,21.7,102.86.67,2.86,1.28,5.43,1.8,7.63,1.27,5.37,2.05,8.58,2.05,8.58l144.61-3s.41-1.85,1.1-5.13c5.18-24.21,26.51-126.29,20.88-136.24a8.7,8.7,0,0,0-1.74-2.07,16.58,16.58,0,0,0-1.87-1.42c-.7-.47-1.49-.93-2.35-1.39-10.47-5.52-32.29-10.12-57.08-12.84-29.22-3.21-62.56-3.79-86.22-.18l-2,.32c-1.73.28-3.38.58-5,.88-31,5.87-37,14.32-37.21,26.27h0C256,178.4,256.81,183.63,257.37,189.46Z"/><path class="cls-5" d="M426.62,274.53a.63.63,0,0,0,.62-.52c0-.25,4.63-25.44,8.33-51,2.17-15.05,3.62-27.3,4.3-36.41,1.16-15.64-.16-18.76-1.26-19.74-6.35-5.7-39.21-10.07-58.24-12.17a184,184,0,0,0-27.59-.94c-22,.91-59.85,3.32-66.26,9.23-1.09,1-2.37,4.14-1,19.76.8,9.1,2.42,21.33,4.8,36.34,4.06,25.56,9,50.69,9.05,50.94a.61.61,0,0,0,.73.49.63.63,0,0,0,.5-.73c-.05-.25-5-25.36-9-50.9-7.09-44.67-5.68-53.62-4.21-55,4.47-4.13,28.33-7.37,65.46-8.9a182.88,182.88,0,0,1,27.4.93c18.88,2.08,51.45,6.39,57.54,11.85,1.49,1.34,3,10.26-3.45,55-3.69,25.59-8.27,50.77-8.32,51a.63.63,0,0,0,.51.73Z"/><path class="cls-5" d="M256.07,173.69h0c.06,4.38.79,9.22,1.3,14.55,1.52,16,14.94,74.18,21.7,102.86H302.7s-26.06-95-27.6-118.41c-1-15.26,10.25-22.26,18.18-25.28C262.27,153.29,256.26,161.74,256.07,173.69Z"/><path class="cls-5" d="M427.44,302.75s22.23-2.16,24.06,5.89c1.42,6.27-.49,62.49-1.39,86.91a11.75,11.75,0,0,0,11.09,12.18c1.42.08,2.91.15,4.44.21,7.37.26,15.72.15,21.45-1.14,12.47-2.81,12.87-20.51,17.3-49.89s8.45-81.67-18.91-91.72c-.94-.35-1.88-.66-2.82-.95-26.36-8-51.49,7.79-51.49,7.79C425.09,288.84,427.44,302.75,427.44,302.75Z"/><path class="cls-7" d="M465.64,407.94c7.37.26,15.72.15,21.45-1.14,12.47-2.81,12.87-20.51,17.3-49.89s8.45-81.67-18.91-91.72c-.94-.35-1.88-.66-2.82-.95-4.66,1.12-9,4.21-11.26,11C465.13,293.68,475.08,357.73,465.64,407.94Z"/><path class="cls-5" d="M480.21,403.53c5.68,0,10.1-2.34,12.8-6.81,4.23-7,10.32-66.86,10.58-69.41a.57.57,0,0,0-1.13-.11c-.06.62-6.33,62.17-10.42,68.94-6.21,10.25-19.91,4.78-20.05,4.73a.57.57,0,1,0-.43,1.05,25.22,25.22,0,0,0,8.13,1.61Z"/><path class="cls-5" d="M478.17,285.61s.45-10.05,8-9.25,7.95,17.38,1.17,19.52C477.45,299,478.17,285.61,478.17,285.61Z"/><path class="cls-5" d="M495.64,282.61h.12a.56.56,0,0,0,.43-.68c-.08-.37-2.11-9.18-9.45-10.94a8.8,8.8,0,0,0-7.86,1.59,13.77,13.77,0,0,0-4.73,9.47.57.57,0,1,0,1.13,0,12.76,12.76,0,0,1,4.31-8.58,7.68,7.68,0,0,1,6.88-1.37c6.66,1.59,8.6,10,8.61,10.08A.58.58,0,0,0,495.64,282.61Z"/><path class="cls-5" d="M272.78,299c1.42,6,2.28,9.53,2.28,9.53l160.77-3.37s.45-2.06,1.22-5.7C408.56,294.61,310.79,296.24,272.78,299Z"/><path class="cls-7" d="M274.06,329.36c0,3,.11,6.24.21,9.57.9,30,4.56,69.47,17.56,72.93,21.16,5.64,152.44,8.51,159.3-4,2.05-3.74,3.32-10,4.15-17.75.17-1.51.31-3.08.44-4.69,1.13-14,1.14-31.33,1.61-46.45.12-4.07.28-8,.5-11.6,1.63-26.67-20.07-27-20.07-27-30.68-.72-75.75.72-110.81,2.2-18.28.77-33.84,1.55-43.21,2-6,.32-9.5.52-9.5.52S273.88,315.25,274.06,329.36Z"/><path class="cls-5" d="M334.18,351.6s-5.1,7.2,0,9.66,11.1-12.5,21.79-17,17.5-11.45,21.91-9.28,11.6,2,14.93-.82S450.19,310.41,454,304s-7-6.13-7-6.13S347.52,335.62,334.18,351.6Z"/><path class="cls-5" d="M376.88,390.46q4,0,8.19-.09c42.38-.86,66.76-10.4,67-10.49a.71.71,0,0,0,.39-.91.7.7,0,0,0-.91-.39c-.24.09-24.42,9.54-66.51,10.4s-65.3-5.14-65.53-5.2a.69.69,0,0,0-.85.49.7.7,0,0,0,.49.86C319.38,385.18,339.73,390.46,376.88,390.46Z"/><path class="cls-5" d="M457.92,354.54s-24.82-15-35.69-17.56c-15-3.53-12.67,2.52-23-.83-21.33-6.91-59.06-13.82-79.07-27.63L346.28,304l67.55,12.73,11.91-2.25S446.81,336.91,453.6,343,457.92,354.54,457.92,354.54Z"/><path class="cls-5" d="M274.06,329.36c0,3,.11,6.24.21,9.57.9,30,4.56,69.47,17.56,72.93,21.16,5.64,152.44,8.51,159.3-4,2.05-3.74,3.32-10,4.15-17.75.17-1.51.31-3.08.44-4.69C449.5,389.53,430.8,395,418,396.3c-53.54,5.49-95.21-2-95.21-2,7-29,5.17-75.28,4.2-91.82-18.28.77-33.84,1.55-43.21,2Z"/><path class="cls-8" d="M365.35,99.4s-16.33,4.46-17.91,22.26-13,13.92-15.92,27.39c-3.06,13.93,8,16.13-3.84,26.29s-5,32.34,23.32,19.43,27.82-7.65,48.84-3.18,2.38-27.58,1.17-45C399.6,126.52,406.7,104.92,365.35,99.4Z"/><path class="cls-9" d="M407.77,168.53s30,40.73,36.87,61-9.77,34.7-9.77,34.7L419.44,270S403.57,198.4,407.77,168.53Z"/><path class="cls-10" d="M405.13,282.61C392,287,360,298.36,346,293.75a13.23,13.23,0,0,1-1.67-.68,8.76,8.76,0,0,1-3.59-3c-5.46-8.31-10.87-43.18-8.44-63.68.3-2.56.45-5.34.5-8.26.07-4.29-.07-8.89-.25-13.52-.69-17.41-3.43-29.43,4-33.66a86.85,86.85,0,0,1,20.53-8.06c3.34-.8,8.81-2.47,12.64-2.39l16.6,3s14.33,2.39,17.64,4.83,5,13.18,11,23,7.27,19.71,1.57,30.51c-5,9.39-4.09,5.83-4.74,21.25C411,262,430.74,274.12,405.13,282.61Z"/><path class="cls-3" d="M361.06,194.1s18-4.65,40.94-.36l.55,15.87s-25.24-2.81-41.14,1.24Z"/><path class="cls-3" d="M381.73,180.7l-.74,0c-9.83-.51-18.84-9.18-19.22-9.55a.67.67,0,1,1,.94-1c.09.08,9,8.69,18.35,9.17,8.92.47,10-8.39,10-8.77a.67.67,0,0,1,1.34.15C392.43,170.82,391.25,180.7,381.73,180.7Z"/><path class="cls-3" d="M353.87,260.13a.61.61,0,0,1-.19-.2.7.7,0,0,1,.24-1A82.78,82.78,0,0,1,387,247.58a60.9,60.9,0,0,1,14.59-.16.7.7,0,0,1-.21,1.39,60,60,0,0,0-14.27.17,81.17,81.17,0,0,0-32.46,11.19A.69.69,0,0,1,353.87,260.13Z"/><path class="cls-11" d="M370.57,288.92c-11.81-3.74-22.49-11.27-29.79-18-.57-.53-1.13-1.06-1.66-1.58-3.78-3.67-6.45-1.78-7.6-3.89-4.42-8.09-1.91-39.78,0-51.42s-6.13-33-1.8-40.6,19.21-10.28,19.21-10.28-2.11-2.46,1.89-5.27,14.64-1.65,14.64-1.65C366,206.62,373.11,253.42,370.57,288.92Z"/><path class="cls-10" d="M359,274.48a.66.66,0,0,1-.65-.56c-5.37-34.94-.06-100.67,0-101.33a.66.66,0,1,1,1.31.1c-.06.66-5.36,66.24,0,101a.65.65,0,0,1-.55.75Z"/><path class="cls-9" d="M369.77,279.73a.67.67,0,0,1-.65-.55c-7-40.14-7.59-109.39-7.59-110.09a.66.66,0,0,1,.65-.66h0a.66.66,0,0,1,.66.65c0,.7.56,69.84,7.57,109.87a.67.67,0,0,1-.53.77Z"/><path class="cls-9" d="M358.1,168.69l-.17,0a22.19,22.19,0,0,1-9.11-4.91.66.66,0,1,1,.92-.94h0a21.27,21.27,0,0,0,8.53,4.57.66.66,0,0,1-.17,1.3Z"/><path class="cls-11" d="M421.74,266.93a36.24,36.24,0,0,1-19.88,20.93c-1.94-38.43-6.36-82.32-12.05-129,0,0,6-1.06,8.49,2.37a9.44,9.44,0,0,1,1.31,4,30.83,30.83,0,0,1,6.41,2.15c3.36,1.56,3,3.71,3.77,9.16s9.21,13.87,11.95,25.28-4.52,18.7-6.78,28.28S421.74,266.93,421.74,266.93Z"/><path class="cls-10" d="M408.29,272.88a.66.66,0,0,1-.66-.64,649.88,649.88,0,0,0-11.16-99.47A.66.66,0,0,1,397,172a.65.65,0,0,1,.78.51A651.82,651.82,0,0,1,409,272.2a.67.67,0,0,1-.64.68Z"/><path class="cls-9" d="M393.86,170.14a.66.66,0,0,1-.11-1.31c.05,0,4.26-.77,5.23-3.83a.66.66,0,1,1,1.26.4c-1.22,3.83-6.06,4.69-6.26,4.73Z"/><path class="cls-9" d="M406.75,272.88a.66.66,0,0,1-.65-.58c-4.64-38.55-12-100.15-12-100.77a.65.65,0,0,1,.57-.73.68.68,0,0,1,.74.58c.07.62,7.39,62.22,12,100.76a.66.66,0,0,1-.58.73Z"/><path class="cls-8" d="M366.84,149.43s-16.19-5.26-16.7-22.8,8.65-30,26.76-28.45C376.9,98.18,385,147.57,366.84,149.43Z"/><path class="cls-8" d="M401.17,110.18s4.38,14.28,2.14,16.91-6-2.61-6-2.61S398.4,110.9,401.17,110.18Z"/><path class="cls-12" d="M398,129.51s3.59-4.68,6-.28,1.15,13.57-4.71,12.36Z"/><path class="cls-7" d="M404.86,142a10.11,10.11,0,0,1-1.81,1.77c-2.57,2-6.23,2.74-11,1.11,0,0-6.83-6.46-.53-20.77,0,0,7.35-3.24,12.47.7a9.93,9.93,0,0,1,1.6,1.58,11.11,11.11,0,0,1,.86,1.26C408.61,131.32,408.17,137.84,404.86,142Z"/><path class="cls-10" d="M404.86,142a10.11,10.11,0,0,1-1.81,1.77,39,39,0,0,0,.92-19,9.93,9.93,0,0,1,1.6,1.58A40.23,40.23,0,0,1,404.86,142Z"/><path class="cls-13" d="M389.53,153.05l1,12s-6.93,11-24.95-3.4c-.48-5.44.34-10.06-.14-14.2a26.62,26.62,0,0,0,3.89,1.84l1.58.6C375.93,151.72,383.38,153.83,389.53,153.05Z"/><path class="cls-8" d="M389.53,153.05l.5,5.75c-5.36-.92-15-3.31-20.66-9.49l1.58.6C375.93,151.72,383.38,153.83,389.53,153.05Z"/><path class="cls-13" d="M401.84,129.31c.06,1.29.11,2.5.14,3.64.28,8.58-.09,13.3-2,15.53-9.9,11.28-33.64-.47-34.4-.85h0c-.26-1-.5-1.9-.72-2.84a75.66,75.66,0,0,1-1.84-22.5,17.07,17.07,0,0,1,10.25-17.49c7.15-3,13.82-.12,17.8.9,6,1.54,10.09,9,10.65,19.89C401.72,126.89,401.79,128.13,401.84,129.31Z"/><path class="cls-8" d="M384.51,116.48s2.17.11,1.51,2.13-5.11,0-8,3.84C378,122.45,376.43,117.76,384.51,116.48Z"/><path class="cls-8" d="M394.3,116s-2.15.32-1.29,2.26,5.08-.45,8.36,3C401.37,121.32,402.46,116.51,394.3,116Z"/><path class="cls-12" d="M384.56,132c.05,1-2,1.93-4.55,2.05s-4.68-.6-4.73-1.6,2-1.93,4.55-2S384.51,131,384.56,132Z"/><path class="cls-8" d="M392.8,139.25A12.14,12.14,0,0,1,386,137a.57.57,0,0,1,.68-.92h0c.24.18,6,4.39,10,.11a.57.57,0,1,1,.84.78A6.66,6.66,0,0,1,392.8,139.25Z"/><path class="cls-10" d="M381.57,137a8.34,8.34,0,1,1,9.62-6.82A8.34,8.34,0,0,1,381.57,137Zm2.6-15.24A7.12,7.12,0,1,0,390,130,7.13,7.13,0,0,0,384.17,121.76Z"/><path class="cls-10" d="M375.22,128.42a.6.6,0,0,1-.23,0,12.31,12.31,0,0,0-8.71,1.25.61.61,0,0,1-.65-1,13.5,13.5,0,0,1,9.65-1.39.61.61,0,0,1-.06,1.19Z"/><path class="cls-10" d="M400.07,135.46a8.34,8.34,0,1,1,9.63-6.82A8.35,8.35,0,0,1,400.07,135.46Zm2.61-15.25a7.13,7.13,0,1,0,5.82,8.22A7.13,7.13,0,0,0,402.68,120.21Z"/><path class="cls-8" d="M392.92,131.3a5.61,5.61,0,0,1-2.66-.52A.56.56,0,0,1,390,130a.56.56,0,0,1,.76-.27,4.45,4.45,0,0,0,2.36.39L391,124.85a.56.56,0,0,1,.32-.74.57.57,0,0,1,.74.31l2.4,5.94a.58.58,0,0,1-.36.76A5.59,5.59,0,0,1,392.92,131.3Z"/><path class="cls-10" d="M390.12,126.79a.63.63,0,0,1-.27-.16.6.6,0,0,1,0-.86,3.75,3.75,0,0,1,4.2-.51.61.61,0,1,1-.54,1.1,2.55,2.55,0,0,0-2.83.29A.59.59,0,0,1,390.12,126.79Z"/><g class="cls-14"><path class="cls-12" d="M401.84,129.31c.06,1.29.11,2.5.14,3.64-2.36,0-4.23-.67-4.27-1.62S399.48,129.51,401.84,129.31Z"/></g><path class="cls-8" d="M385.24,129c.07,1.39-.51,2.54-1.28,2.58s-1.46-1.06-1.53-2.44.51-2.54,1.28-2.58S385.17,127.66,385.24,129Z"/><path class="cls-8" d="M398.94,128.38c.07,1.39-.5,2.54-1.28,2.58s-1.46-1.06-1.52-2.44.5-2.54,1.28-2.58S398.88,127,398.94,128.38Z"/><path class="cls-8" d="M369.77,141.8c-.06.16-1.67,4.47-4.23,5.83h0v0c-.26-1-.5-1.9-.72-2.84A10.62,10.62,0,0,0,369.77,141.8Z"/><path class="cls-13" d="M366.77,132.3s-5.9-7.17-9.67-1.13c-3.11,5,3.8,17.5,10.35,12.49Z"/><path class="cls-8" d="M366.46,141.57a.56.56,0,0,1-.59-.48,9.57,9.57,0,0,0-5.9-7.41.57.57,0,1,1,.37-1.07,10.65,10.65,0,0,1,6.66,8.3.59.59,0,0,1-.48.66Z"/><path class="cls-8" d="M361,138.37a.57.57,0,0,1-.45-.18.58.58,0,0,1,0-.81c.22-.2,2.19-1.9,3.92-1.55a.58.58,0,0,1,.45.67.59.59,0,0,1-.68.45c-1-.21-2.48.88-2.92,1.28A.54.54,0,0,1,361,138.37Z"/><path class="cls-8" d="M389.05,98.44a20,20,0,0,1,12.9,9.43c1.73,3,3.49,7.11-1.17,7.46-12.7,1-21.89-10.6-21.89-10.6s-.06,12.34-10.09,12.83-11.18-6.93-6.47-12.18C366.17,101.09,377,95.66,389.05,98.44Z"/><path class="cls-8" d="M368.91,116.12s-4.36,7-1.1,13.06,4.41,11.12,3,15a39.89,39.89,0,0,0-5.36-11.26c-2.86-3.8-5.38-6.62-4.88-11.75C360.93,117.62,362.73,113.94,368.91,116.12Z"/><path class="cls-7" d="M367.14,146.51c-3.9,1.46-7.08,1.29-9.56.13a8.34,8.34,0,0,1-1.13-.63c-5.33-3.43-6.73-11.77-4.29-16.24a9.5,9.5,0,0,1,3.14-3.48,9.4,9.4,0,0,1,1.1-.63c4.79-2.25,10.57.07,10.57.07C373.74,139.82,367.14,146.51,367.14,146.51Z"/><path class="cls-10" d="M400.82,106.14A19.54,19.54,0,0,0,395.2,101a16.75,16.75,0,0,0-11-4,20.9,20.9,0,0,0-9.26,1.69,17.75,17.75,0,0,0-5.11,3.52,21.44,21.44,0,0,0-3,3.74,29.51,29.51,0,0,0-2.82,5.9,40.57,40.57,0,0,0-1.33,4.71,45.82,45.82,0,0,0-1.08,9.22l-1.59,0a45.78,45.78,0,0,1,1.24-10.27c1.14-4.82,3.32-10.38,7.46-14.45l.26-.26c4-3.77,9.11-5.59,15.27-5.4,5.89.17,10.54,2.31,13.84,6.33A21.27,21.27,0,0,1,400.82,106.14Z"/><path class="cls-10" d="M357.58,146.64a8.34,8.34,0,0,1-1.13-.63,28.22,28.22,0,0,0-1.15-19.72,9.4,9.4,0,0,1,1.1-.63A29.5,29.5,0,0,1,357.58,146.64Z"/><path class="cls-15" d="M367.82,300.55a36.34,36.34,0,0,0,9.9,4.44c26.89,8.55,51.54-5.26,51.54-5.26,1.49-7.36.57-15.73-1.91-18.79a2.7,2.7,0,0,0,.26-2.39l24.74-25.68c-14.07,11.66-31.47,15.47-45,23.66h0c-3.9,2.36-7.41,4.44-10,5.88-3.93,2.21-8.94,2.42-13.85,1.75a67.76,67.76,0,0,1-18.75-6s-30.81-14-36.59-13.5C323.66,265,347.83,290.22,367.82,300.55Z"/><path class="cls-10" d="M456.82,352.22c-1.43.82-2.78-3.5-9.84-8.83-.45-.34-.92-.68-1.42-1-8.3-5.79-38.13-12.7-38.13-12.7l3.73-10.24a23.26,23.26,0,0,0,8.28-2.51l.15-.09c3.65-2.15,6.61-2.56,9.79-1.4,4,1.44,5.14,5.25,6.93,7.88a8.45,8.45,0,0,0,1,1.26c2.87,2.87,8.84,6.87,12.43,10.63.34.36.66.72,1,1.07,2.85,3.37,4,6.5,5.82,8.6C458.84,347.5,458.34,351.34,456.82,352.22Z"/><path class="cls-11" d="M436.31,323.31c-9.24,2.71-14.69-3.19-16.87-6.39l.15-.09c3.65-2.15,6.61-2.56,9.79-1.4C433.34,316.87,434.52,320.68,436.31,323.31Z"/><path class="cls-11" d="M456.82,352.22c-1.43.82-2.78-3.5-9.84-8.83a20.32,20.32,0,0,1,3.73-7.12c2.85,3.37,4,6.5,5.82,8.6C458.84,347.5,458.34,351.34,456.82,352.22Z"/><path class="cls-15" d="M328.15,264.62s-19.5-10.53-30.8-2.39c-20.66,14.88,14.39,43.5,54.49,57.47S405,331.77,405,331.77s8.72-2.4,5.63-16.52c0,0-23.12-8.78-35.14-18S355.21,276.78,328.15,264.62Z"/><path class="cls-16" d="M409,319.36c-8.41-2-25.55-9.88-45.84-21-15.18-8.33-32.69-19-35.26-22.68-1.38-2-1.73-3.63-1-4.85,1.05-1.83,4.06-2,5.43-2a.62.62,0,0,1,.6.66h0a.6.6,0,0,1-.61.56c-1.35,0-3.69.22-4.36,1.4-.55,1,.23,2.46,1,3.55,2.08,3,16.73,12.36,34.84,22.31,15.6,8.56,35.76,18.55,45.54,20.9Z"/><path class="cls-16" d="M407.43,313.38c-.94,7.42-2.87,14.17-7.06,19.34,0,0,3.59,2.58,6.87.73,2.5-1.42,7.33-13,5.49-19.2C410.64,313.11,408.83,312.71,407.43,313.38Z"/><path class="cls-10" d="M333.88,358.56c1.52.62,2.28-3.84,8.58-10.06.39-.4.81-.8,1.26-1.21,7.46-6.84,36.1-17.67,36.1-17.67L374.76,320a23.37,23.37,0,0,1-8.54-1.39l-.17-.06c-3.9-1.65-6.88-1.66-9.89-.09-3.73,2-4.38,5.88-5.81,8.73a8.18,8.18,0,0,1-.84,1.38c-2.45,3.23-7.84,8-10.89,12.2-.29.4-.56.8-.82,1.19-2.37,3.72-3.07,7-4.62,9.29C331.25,354.15,332.25,357.89,333.88,358.56Z"/><path class="cls-11" d="M350.35,327.17c9.52,1.45,14.13-5.11,15.87-8.58l-.17-.06c-3.9-1.65-6.88-1.66-9.89-.09C352.43,320.4,351.78,324.32,350.35,327.17Z"/><path class="cls-11" d="M333.88,358.56c1.52.62,2.28-3.84,8.58-10.06a20.28,20.28,0,0,0-4.66-6.56c-2.37,3.72-3.07,7-4.62,9.29C331.25,354.15,332.25,357.89,333.88,358.56Z"/><path class="cls-15" d="M449.72,254.58s17.92-13,30.2-6.47c22.46,12-8.46,45-46.34,64.22s-51,19.05-51,19.05-8.95-1.22-7.77-15.62c0,0,21.73-11.79,32.43-22.52S424.52,270.24,449.72,254.58Z"/><path class="cls-16" d="M376.87,319.62c8.07-3.13,24-13.2,42.63-26.95,13.93-10.29,29.86-23.18,31.91-27.18,1.11-2.16,1.24-3.83.39-4.95-1.28-1.67-4.29-1.46-5.64-1.26a.61.61,0,0,0-.52.72h0a.61.61,0,0,0,.68.48c1.34-.19,3.69-.27,4.51.8.68.89.1,2.48-.5,3.65-1.66,3.23-14.93,14.48-31.55,26.76-14.32,10.57-33,23.16-42.35,26.79Z"/><path class="cls-16" d="M377.64,313.48c1.93,7.23,4.74,13.66,9.58,18.22,0,0-3.21,3.05-6.71,1.64-2.67-1.07-9-11.91-8-18.29C374.43,313.64,376.17,313,377.64,313.48Z"/><path class="cls-11" d="M367.45,253.35,366,274.53s-25.18-3.6-37.54-6.75a51.29,51.29,0,0,1-11.34-4.06c-6.82-3.63-12.48-9.94-12.06-22.25a56.24,56.24,0,0,1,2.44-13.82,285.69,285.69,0,0,1,24.06-56.57c19.39,8.3,17.76,22.11,17.76,22.11-5.53,14.75-17.76,46.17-17.76,46.17C338.62,248,367.45,253.35,367.45,253.35Z"/><path class="cls-9" d="M331.52,240a.64.64,0,0,1-.35-.1c-2.14-1.32-8-2.7-8-2.71a.66.66,0,1,1,.3-1.28,51.53,51.53,0,0,1,7,2.16,11.78,11.78,0,0,0-1.94-2.84.66.66,0,0,1,.06-.93.65.65,0,0,1,.93.06,10.18,10.18,0,0,1,2.68,4.87.66.66,0,0,1-.65.77Z"/><path class="cls-9" d="M317.08,263.72c-6.82-3.63-12.48-9.94-12.06-22.25C310.42,244.3,319.84,251.15,317.08,263.72Z"/><path class="cls-9" d="M351.61,250.11a.51.51,0,0,1-.17,0,51.7,51.7,0,0,1-20.36-10.23.67.67,0,0,1-.15-.79c8.9-17.49,14.52-31.37,17.71-43.7a.66.66,0,0,1,.8-.48.67.67,0,0,1,.48.81c-3.19,12.31-8.78,26.15-17.58,43.51a52.71,52.71,0,0,0,19.43,9.61.66.66,0,0,1-.16,1.3Z"/><path class="cls-9" d="M346.61,205.16a.65.65,0,0,1-.51-1.06l4.62-5.81a.66.66,0,1,1,1,.82l-4.62,5.81A.66.66,0,0,1,346.61,205.16Z"/><path class="cls-5" d="M242.32,308.54a55.22,55.22,0,0,1-.24-12.35,29,29,0,0,1,20.63-25.5c9.48-2.8,22-4.53,34.82-.66.94.29,1.89.6,2.83,1,27.35,10,23.33,62.36,18.9,91.72s-4.82,47.08-17.3,49.89c-5.72,1.29-14.08,1.4-21.44,1.14-1.54-.06-3-.13-4.44-.21,0,0-15.51,1.35-23.46-5.47S242.32,308.54,242.32,308.54Z"/><path class="cls-7" d="M280.52,413.73c7.36.26,15.72.15,21.44-1.14,12.48-2.81,12.88-20.52,17.3-49.89S327.71,281,300.36,271c-.94-.35-1.89-.66-2.83-1-4.66,1.11-8.94,4.21-11.26,11C280,299.47,290,363.52,280.52,413.73Z"/><path class="cls-5" d="M296,408.85c5.68,0,10.1-2.34,12.8-6.81,4.22-7,10.32-66.86,10.58-69.41a.57.57,0,0,0-.51-.62.56.56,0,0,0-.62.51c-.07.62-6.33,62.17-10.42,68.94-2.59,4.28-6.74,6.38-12.29,6.25a24.88,24.88,0,0,1-7.76-1.52.57.57,0,1,0-.43,1.05,25.22,25.22,0,0,0,8.13,1.61Z"/><path class="cls-5" d="M290.46,287.51a.56.56,0,0,0,.57-.57,12.72,12.72,0,0,1,4.31-8.58,7.68,7.68,0,0,1,6.88-1.37c6.65,1.59,8.59,10,8.61,10.08a.58.58,0,0,0,.68.43.56.56,0,0,0,.43-.68c-.08-.37-2.11-9.18-9.45-10.94a8.83,8.83,0,0,0-7.86,1.59,13.79,13.79,0,0,0-4.74,9.47A.57.57,0,0,0,290.46,287.51Z"/><path class="cls-5" d="M293.44,291s.45-10,8-9.26,7.95,17.38,1.17,19.52C292.72,304.43,293.44,291,293.44,291Z"/><path class="cls-8" d="M349.59,293.21,344,282.66a3.93,3.93,0,0,1,3.52-5.76l87.24.94-2.58,13.52Z"/><path class="cls-8" d="M430.72,290.24H352.64a3,3,0,0,1-3-3.41l5.32-48.23a3.91,3.91,0,0,1,3.79-3.41h78.07a3,3,0,0,1,3,3.41l-5.33,48.23A3.89,3.89,0,0,1,430.72,290.24Z"/><path class="cls-7" d="M377.36,255c-.63,3.31-7,7.46-7,7.46s-5.8-4.15-6-7.46c-.24-3.59,4.05-4.69,6.62-2C373.9,250.31,378.06,251.41,377.36,255Z"/><path class="cls-15" d="M376.09,277c-.3,2.73-2,4.14-3.82,4.14a2,2,0,0,1-2.12-1.24,2.5,2.5,0,0,1-2.3,1.24c-1.55,0-2.88-1.35-2.64-3.55a3.69,3.69,0,0,1,3.41-3.55,2,2,0,0,1,1.68.7l.07-.57h2.74l-.45,4.09c-.06.6.16.78.47.78s.78-.4.95-2c.28-2.58-1.45-4.41-4.39-4.41a5.31,5.31,0,0,0-5.42,4.77,4.06,4.06,0,0,0,4.32,4.8,7.4,7.4,0,0,0,3-.63l.41,1.76a9.33,9.33,0,0,1-3.56.68c-4.3,0-6.74-2.87-6.33-6.61s3.47-6.59,7.83-6.59C374,270.78,376.46,273.54,376.09,277Zm-6,.59c.09-.86-.3-1.3-.89-1.3s-1.06.44-1.15,1.3.28,1.31.87,1.31S370,278.43,370.05,277.56Z"/><path class="cls-17" d="M351.48,292.32h-.08a.66.66,0,0,1-.57-.74l6.48-51.66a.65.65,0,1,1,1.3.16l-6.48,51.67A.65.65,0,0,1,351.48,292.32Z"/><path class="cls-17" d="M389.46,263.57a6.87,6.87,0,0,0,6.38,7.46,7.09,7.09,0,0,0,7.45-6.58,6.86,6.86,0,0,0-6.37-7.45A7.09,7.09,0,0,0,389.46,263.57Z"/><path class="cls-8" d="M431.09,294.44H351.94a2.86,2.86,0,0,1-2.84-3.26l.75-5.51H434.8l-.86,6.29A2.88,2.88,0,0,1,431.09,294.44Z"/><path class="cls-10" d="M316.3,88.44v67.39a3.2,3.2,0,0,1-3.2,3.2H199a3.2,3.2,0,0,1-3.2-3.2V88.43a3.2,3.2,0,0,1,3.2-3.2H313.1A3.21,3.21,0,0,1,316.3,88.44Z"/><path class="cls-18" d="M246.16,126.61a21.23,21.23,0,1,1-40.81-8.2l19.58,8.2-1-21.2c.33,0,.66,0,1,0A21.22,21.22,0,0,1,246.16,126.61Z"/><path class="cls-19" d="M221.81,101.91a21.18,21.18,0,0,0-15.65,8,21.61,21.61,0,0,0-2.93,5l19.59,8.2Z"/><rect class="cls-20" x="294.35" y="112" width="2.92" height="2.92"/><rect class="cls-21" x="299.2" y="113.09" width="10.51" height="0.73" rx="0.03"/><rect class="cls-19" x="294.35" y="106.8" width="2.92" height="2.92"/><rect class="cls-21" x="299.2" y="107.89" width="10.51" height="0.73" rx="0.03"/><rect class="cls-18" x="294.35" y="117.19" width="2.92" height="2.92"/><rect class="cls-21" x="299.2" y="118.28" width="10.51" height="0.73" rx="0.03"/><path class="cls-21" d="M309.34,129.24H294.72a.36.36,0,0,1-.37-.36h0a.36.36,0,0,1,.37-.37h14.62a.36.36,0,0,1,.37.37h0A.36.36,0,0,1,309.34,129.24Z"/><path class="cls-21" d="M309.34,132.24H294.72a.37.37,0,0,1-.37-.37h0a.36.36,0,0,1,.37-.36h14.62a.36.36,0,0,1,.37.36h0A.37.37,0,0,1,309.34,132.24Z"/><path class="cls-21" d="M309.34,135.24H294.72a.37.37,0,0,1-.37-.37h0a.36.36,0,0,1,.37-.36h14.62a.36.36,0,0,1,.37.36h0A.37.37,0,0,1,309.34,135.24Z"/><path class="cls-21" d="M309.34,138.23H294.72a.36.36,0,0,1-.37-.36h0a.37.37,0,0,1,.37-.37h14.62a.37.37,0,0,1,.37.37h0A.36.36,0,0,1,309.34,138.23Z"/><path class="cls-21" d="M309.34,141.23H294.72a.36.36,0,0,1-.37-.36h0a.36.36,0,0,1,.37-.37h14.62a.36.36,0,0,1,.37.37h0A.36.36,0,0,1,309.34,141.23Z"/><path class="cls-21" d="M309.34,144.23H294.72a.37.37,0,0,1-.37-.37h0a.36.36,0,0,1,.37-.36h14.62a.36.36,0,0,1,.37.36h0A.37.37,0,0,1,309.34,144.23Z"/><path class="cls-21" d="M309.34,147.23H294.72a.37.37,0,0,1-.37-.37h0a.36.36,0,0,1,.37-.36h14.62a.36.36,0,0,1,.37.36h0A.37.37,0,0,1,309.34,147.23Z"/><path class="cls-22" d="M316.3,88.44v5.62H195.83V88.43a3.2,3.2,0,0,1,3.2-3.2H313.1A3.21,3.21,0,0,1,316.3,88.44Z"/><path class="cls-21" d="M303.61,89.64a1.49,1.49,0,1,1-1.48-1.48A1.49,1.49,0,0,1,303.61,89.64Z"/><path class="cls-20" d="M308.42,89.64a1.49,1.49,0,1,1-1.48-1.48A1.49,1.49,0,0,1,308.42,89.64Z"/><path class="cls-18" d="M313,89.64a1.49,1.49,0,1,1-1.49-1.48A1.49,1.49,0,0,1,313,89.64Z"/><path class="cls-20" d="M246.16,126.61a21.16,21.16,0,0,1-5.47,14.23l-15.76-14.23-1-21.2c.33,0,.66,0,1,0A21.22,21.22,0,0,1,246.16,126.61Z"/><rect class="cls-19" x="266.83" y="121.25" width="6.76" height="28.96"/><path class="cls-18" d="M266.83,142.57a26.15,26.15,0,0,0,6.76-3.49v11.13h-6.76Z"/><rect class="cls-19" x="255.78" y="129.3" width="6.76" height="20.91"/><path class="cls-18" d="M261.29,143.06c.42.06.84.1,1.25.12v7h-6.76v-7A12.35,12.35,0,0,1,261.29,143.06Z"/><rect class="cls-19" x="277.88" y="112.6" width="6.76" height="37.61"/><path class="cls-18" d="M284.64,133.21v17h-6.76V136.1C280.28,134.47,282.52,133.2,284.64,133.21Z"/><path class="cls-20" d="M284.36,101.63l-6.1,1.31,1.64,1.61-9.34,9.52-3.27-3.22L255.7,122.67a1.14,1.14,0,0,0,0,1.62h0a1.15,1.15,0,0,0,1.62,0l10-10.18,3.27,3.21,10.94-11.15,1.64,1.61Z"/><rect class="cls-18" x="464.14" y="200.45" width="46.72" height="32.27" transform="translate(-0.31 0.7) rotate(-0.08)"/><polygon class="cls-19" points="464.12 200.49 464.12 202.56 487.51 223.22 510.83 202.49 510.83 200.42 487.5 221.23 464.12 200.49"/><polygon class="cls-19" points="492 217.15 509.53 232.69 510.88 232.69 510.88 231.87 493 216.01 492 217.15"/><polygon class="cls-19" points="464.16 232.04 464.16 232.76 465.64 232.75 483.12 217.16 482.11 216.03 464.16 232.04"/><polygon class="cls-18" points="510.83 200.42 487.5 221.23 464.12 200.48 510.83 200.42"/><circle class="cls-20" cx="508.63" cy="202.06" r="10.14"/><path class="cls-10" d="M506.55,206.88h0a.94.94,0,0,1-.69-.29l-2.49-2.48a1,1,0,0,1,1.4-1.39l1.78,1.79,7-7a1,1,0,0,1,1.39,1.39l-7.67,7.67A1,1,0,0,1,506.55,206.88Z"/><path class="cls-10" d="M253.5,193.64v19.19a4.6,4.6,0,0,0,4.6,4.6H293l10.52,3.77a1.34,1.34,0,0,0,1.7-1.74l-4-10.28V193.64a4.6,4.6,0,0,0-4.6-4.6H258.1A4.6,4.6,0,0,0,253.5,193.64Z"/><path class="cls-21" d="M283.78,203.78a3.33,3.33,0,1,0,3.32-3.32A3.33,3.33,0,0,0,283.78,203.78Z"/><path class="cls-21" d="M273.25,203.78a3.33,3.33,0,1,0,3.33-3.32A3.33,3.33,0,0,0,273.25,203.78Z"/><path class="cls-21" d="M262.73,203.78a3.33,3.33,0,1,0,3.33-3.32A3.33,3.33,0,0,0,262.73,203.78Z"/><rect class="cls-20" x="427.46" y="86.38" width="129.08" height="26.68" rx="3.84"/><path class="cls-20" d="M433,113.06l2.25,10.45a.67.67,0,0,0,1.24.19l6.2-10.64Z"/><rect class="cls-18" x="534.92" y="91.62" width="15.14" height="15.14" rx="1.84"/><rect class="cls-18" x="435.78" y="91.62" width="87.83" height="2.86" rx="0.35"/><rect class="cls-18" x="435.78" y="97.76" width="87.83" height="2.86" rx="0.35"/><rect class="cls-18" x="435.78" y="103.89" width="87.83" height="2.86" rx="0.35"/><rect class="cls-20" x="465.47" y="137.06" width="21.95" height="21.95" rx="2.07"/><path class="cls-10" d="M482.65,143.52c0-.15-.07-.3-.11-.45a3.29,3.29,0,0,0-.74-1.42,3.74,3.74,0,0,0-.89-.75,1,1,0,0,0-1.34.26c-.61.74-1.22,1.48-1.82,2.23a1.06,1.06,0,0,0,.15,1.49c.33.29.67.56,1,.84l.14.09a9.8,9.8,0,0,1-4.17,5.08l-.74-.62c-.13-.11-.25-.21-.39-.31a1,1,0,0,0-1.26-.07,1.52,1.52,0,0,0-.34.33c-.56.67-1.1,1.35-1.66,2a1.47,1.47,0,0,0-.32.72l0,.29a2,2,0,0,0,.29.5,3.84,3.84,0,0,0,1.11.8,3.11,3.11,0,0,0,1.56.32,6.41,6.41,0,0,0,1.06-.21,8.47,8.47,0,0,0,2.48-1.19,12.56,12.56,0,0,0,2.08-1.77,20.67,20.67,0,0,0,2.31-2.88,10.84,10.84,0,0,0,1.32-2.58,5.83,5.83,0,0,0,.28-1.44c0-.19,0-.39,0-.59S482.68,143.75,482.65,143.52Z"/><rect class="cls-19" x="497.24" y="136.67" width="22.28" height="22.28" rx="1.85"/><path class="cls-10" d="M515.5,147.39c0,2.78-1.56,4.22-3.42,4.22a2.34,2.34,0,0,1-2.3-1.27,2.27,2.27,0,0,1-2.21,1.27c-1.57,0-3.08-1.38-3.08-3.62s1.47-3.61,3.08-3.61a2.32,2.32,0,0,1,1.79.71v-.58h2.79v4.16c0,.61.25.8.57.8s.74-.41.74-2c0-2.63-2-4.49-5-4.49a4.74,4.74,0,0,0-5,4.86,4.67,4.67,0,0,0,4.93,4.88,6.89,6.89,0,0,0,2.94-.64l.61,1.79a8.69,8.69,0,0,1-3.55.7c-4.38,0-7.18-2.92-7.18-6.73s2.8-6.71,7.24-6.71C512.69,141.09,515.5,143.9,515.5,147.39Zm-6.08.6c0-.88-.45-1.33-1.05-1.33s-1,.45-1,1.33.43,1.33,1,1.33S509.42,148.87,509.42,148Z"/><rect class="cls-18" x="527.27" y="136.67" width="22.28" height="22.28" rx="1.85"/><path class="cls-10" d="M539.57,153l0,1.58h-2V153a8.22,8.22,0,0,1-3.66-1l1.1-2.45a6.74,6.74,0,0,0,3.3.94c1,0,1.3-.18,1.3-.53,0-1.25-5.53-.29-5.5-4,0-1.62,1.2-3,3.55-3.28v-1.55h2v1.53a7.51,7.51,0,0,1,2.89.85l-1,2.44a6.19,6.19,0,0,0-2.78-.77c-1,0-1.3.28-1.31.62,0,1.2,5.53.25,5.5,3.93C542.91,151.25,541.78,152.58,539.57,153Z"/><path class="cls-4" d="M200.38,459.65c0,2.81-27.7,5.08-61.88,5.08s-61.87-2.27-61.87-5.08,27.7-5.08,61.87-5.08S200.38,456.84,200.38,459.65Z"/><path class="cls-11" d="M145,295.58a1.37,1.37,0,0,1-1.37-1.35,23.45,23.45,0,0,1,11.69-20.77,1.38,1.38,0,0,1,1.29,2.44h0a20.47,20.47,0,0,0-5.25,4.42,20,20,0,0,0-5,13.86,1.38,1.38,0,0,1-1.35,1.4Z"/><path class="cls-9" d="M140.56,260.05s-16-30.12,41.31-51.23a4,4,0,0,1,5.23,4.59C183.49,229.09,171.64,265.74,140.56,260.05Z"/><path class="cls-9" d="M124.85,292.85h-.2a1.38,1.38,0,0,1-1.17-1.56,59.27,59.27,0,0,1,26.7-41.5,1.38,1.38,0,0,1,1.89.47,1.36,1.36,0,0,1-.47,1.88l0,0A52,52,0,0,0,140,262a55.94,55.94,0,0,0-13.83,29.66A1.38,1.38,0,0,1,124.85,292.85Z"/><path class="cls-9" d="M133.26,292.85h-.07a1.37,1.37,0,0,1-1.3-1.44c.55-11.72-6.89-22.41-7-22.52a1.38,1.38,0,1,1,2.25-1.59c.33.47,8.06,11.59,7.46,24.24A1.37,1.37,0,0,1,133.26,292.85Z"/><path class="cls-11" d="M137.21,294.86h0a1.36,1.36,0,0,1-1.33-1.41L137,248.86a1.36,1.36,0,0,1,1.41-1.33,1.37,1.37,0,0,1,1.34,1.41l-1.18,44.58A1.37,1.37,0,0,1,137.21,294.86Z"/><path class="cls-9" d="M127.65,269.65s-32.49,10.33-43-49.81a4,4,0,0,1,5.45-4.32C104.86,221.87,138.81,240.09,127.65,269.65Z"/><path class="cls-11" d="M148.69,281.22s29.2,17.59,53.4-38.46a4,4,0,0,0-4.3-5.48C181.94,240,144.69,249.88,148.69,281.22Z"/><path class="cls-11" d="M143.34,264.29a5.74,5.74,0,0,1-10.64-.8c-6.93-22.12-18.54-69,5.5-74.38C165.16,183.08,156.12,237.83,143.34,264.29Z"/><path class="cls-9" d="M137.8,267.29h0a.75.75,0,0,1-.71-.78l2.53-62.68a.75.75,0,0,1,.78-.72.74.74,0,0,1,.72.78l-2.54,62.68A.74.74,0,0,1,137.8,267.29Z"/><path class="cls-9" d="M149.49,281.32a.77.77,0,0,1-.58-.28A.75.75,0,0,1,149,280l34.71-28.41a.75.75,0,0,1,1,1.16L150,281.15A.78.78,0,0,1,149.49,281.32Z"/><polygon class="cls-15" points="174.54 289.91 172.6 298.78 171.97 301.68 170.63 307.8 170 310.69 164.38 336.43 113.74 336.43 108.13 310.69 107.49 307.8 106.16 301.68 105.53 298.78 103.59 289.91 174.54 289.91"/><polygon class="cls-16" points="172.6 298.78 171.97 301.68 106.16 301.68 105.53 298.78 172.6 298.78"/><polygon class="cls-16" points="170.63 307.8 170 310.69 108.13 310.69 107.49 307.8 170.63 307.8"/><rect class="cls-23" x="97.52" y="408.23" width="81.81" height="6.48" rx="0.92"/><rect class="cls-24" x="98.86" y="336.43" width="79.29" height="13.69" rx="2.25"/><polygon class="cls-25" points="127.5 350.12 125.23 357.46 93.53 459.65 87.33 459.65 107.43 359.55 109.33 350.12 127.5 350.12"/><polygon class="cls-23" points="109.33 350.12 127.5 350.12 125.23 357.46 107.43 359.55 109.33 350.12"/><polygon class="cls-25" points="189.87 459.65 183.67 459.65 151.03 354.44 149.69 350.12 167.87 350.12 168.32 352.41 168.33 352.41 189.87 459.65"/><polygon class="cls-23" points="168.32 352.41 151.03 354.44 149.69 350.12 167.87 350.12 168.32 352.41"/><path class="cls-24" d="M99.8,394.14H177a2.28,2.28,0,0,1,2.28,2.28v1.91a2.28,2.28,0,0,1-2.28,2.28H99.8a2.28,2.28,0,0,1-2.28-2.28v-1.91a2.29,2.29,0,0,1,2.29-2.29Z"/><path class="cls-4" d="M690.54,455c0,3.76-55.58,6.81-124.14,6.81S442.26,458.78,442.26,455s55.58-6.82,124.14-6.82S690.54,451.25,690.54,455Z"/><rect class="cls-23" x="483.12" y="438.91" width="159.89" height="3.64"/><path class="cls-25" d="M693.48,383.23a73.91,73.91,0,0,1-4.43,11.69c-.33.7-.69,1.4-1,2.09a52.56,52.56,0,0,1-8.76,12.08,21.17,21.17,0,0,1-15.17,6.39H463.49a21.17,21.17,0,0,1-15.17-6.39A52,52,0,0,1,439.56,397c-.36-.69-.72-1.39-1.06-2.09a74.86,74.86,0,0,1-4.42-11.69Z"/><path class="cls-23" d="M689.05,394.92c-.33.7-.69,1.4-1,2.09H439.56l-1.06-2.09Z"/><polygon class="cls-23" points="666.94 415.27 662.23 426.12 465.24 426.12 460.53 415.27 563.74 415.38 666.94 415.27"/><path class="cls-23" d="M506.82,426.12s-2.35,7.51-8.57,7.51H473.81c-6.22,0-8.57-7.51-8.57-7.51Z"/><polygon class="cls-25" points="482.88 455.37 493.88 433.63 475.85 433.63 469.53 455.37 482.88 455.37"/><path class="cls-23" d="M620.65,426.12s2.35,7.51,8.57,7.51h24.44c6.22,0,8.57-7.51,8.57-7.51Z"/><polygon class="cls-25" points="644.59 455.37 633.59 433.63 651.62 433.63 657.94 455.37 644.59 455.37"/><path class="cls-11" d="M646.13,348.89h-7l-1-2-1-2.18c-1-2.12-2.3-5-3.81-8.31a.36.36,0,0,1,0-.09c-9.46-21-26.41-61.82-19.48-69.93,7.88-9.21,17.28,4.59,24.11,30.72q.71,2.7,1.37,5.55a301.71,301.71,0,0,1,5.9,36c.21,2,.41,4,.59,6C645.9,346.11,646,347.49,646.13,348.89Z"/><path class="cls-9" d="M645.78,344.73l-2.11,4.16h-4.55l-1-2-.25-49.8A296,296,0,0,1,645.78,344.73Z"/><path class="cls-9" d="M643.92,348.89h-1.14L620.7,276.55a.54.54,0,1,1,1-.32Z"/><path class="cls-11" d="M664.05,334.2c-.52,1.17-1,2.29-1.5,3.35-1.3,2.86-2.43,5.3-3.31,7.18-1.23,2.64-2,4.16-2,4.16h-7c.11-1.4.22-2.78.35-4.16q.25-2.91.56-5.75a304,304,0,0,1,5.69-35.3c.37-1.6.74-3.17,1.13-4.7,6.87-27.33,16.52-42,24.58-32.58C689.28,274.25,673.64,312.68,664.05,334.2Z"/><path class="cls-9" d="M650.61,344.73l2.11,4.16h4.55s.34-.7.94-2l.26-49.8A296,296,0,0,0,650.61,344.73Z"/><path class="cls-9" d="M652.46,348.89h1.15l22.08-72.34a.56.56,0,0,0-.36-.69.56.56,0,0,0-.69.37Z"/><path class="cls-11" d="M656.86,303.68c-1,13.84-2.34,26.78-3.31,35.24-.71,6.18-1.22,10-1.22,10h-6.2q-1.1-5.2-2-10.31c-2.29-12.63-3.87-24.73-4.82-35.91-3.63-42.82,2.06-71.94,12.49-64.18C659.27,244.05,658.84,275.69,656.86,303.68Z"/><path class="cls-9" d="M662.55,337.55c-1.3,2.86-2.43,5.3-3.31,7.18-1.23,2.64-2,4.16-2,4.16H639.12l-1-2-1-2.18c-1-2.12-2.3-5-3.81-8.31a66.23,66.23,0,0,0,10.78,2.16l1.08.11a57.19,57.19,0,0,0,6,.29c.78,0,1.57,0,2.38-.06A43.71,43.71,0,0,0,662.55,337.55Z"/><path class="cls-9" d="M648.7,251.86l-.75,97h-1.09l.74-97a.55.55,0,0,1,.55-.54A.55.55,0,0,1,648.7,251.86Z"/><path class="cls-15" d="M679.87,348.14l-.91,2.41-.57,1.53-1.65,4.36-.57,1.53-1.69,4.49L673.9,364l-7.25,19.25h-39.6L619.79,364l-.57-1.52L617.53,358l-.57-1.53-1.65-4.36-.57-1.53-.91-2.41a2.52,2.52,0,0,1,2.36-3.41h61.32A2.52,2.52,0,0,1,679.87,348.14Z"/><polygon class="cls-16" points="678.96 350.55 678.39 352.08 615.31 352.08 614.74 350.55 678.96 350.55"/><polygon class="cls-16" points="676.74 356.44 676.17 357.97 617.53 357.97 616.96 356.44 676.74 356.44"/><polygon class="cls-16" points="674.48 362.46 673.9 363.98 619.79 363.98 619.22 362.46 674.48 362.46"/><path class="cls-5" d="M573.82,371.51V362a6.34,6.34,0,0,1,6.33-6.33h8.06a6.34,6.34,0,0,1,6.33,6.33v9.52a6.34,6.34,0,0,1-6.33,6.33h-8.06A6.34,6.34,0,0,1,573.82,371.51Zm6.33-12.6a3.08,3.08,0,0,0-3.08,3.08v9.52a3.08,3.08,0,0,0,3.08,3.08h8.06a3.08,3.08,0,0,0,3.08-3.08V362a3.08,3.08,0,0,0-3.08-3.08Z"/><path class="cls-7" d="M581.1,383.23a207,207,0,0,0,23.63,0V350.87a172.69,172.69,0,0,0-23.64,0Z"/><g class="cls-26"><path class="cls-10" d="M592.13,347.53s6.32-2.54,2.52-9.39-8.17-12.18-4.07-17.56c0,0-4.92,1.49-5.31,9.13S594.38,342.62,592.13,347.53Z"/></g><polygon class="cls-24" points="562.69 383.23 519.71 383.23 513.41 340.25 556.4 340.25 562.69 383.23"/><polygon class="cls-23" points="513.41 340.25 507.46 383.23 519.71 383.23 513.41 340.25"/><polygon class="cls-27" points="522.32 380.17 516.92 343.31 553.78 343.31 559.18 380.17 522.32 380.17"/><polygon class="cls-10" points="522.84 379.56 517.63 343.93 553.26 343.93 558.47 379.56 522.84 379.56"/><polygon class="cls-15" points="550.05 348.29 554 375.19 526.02 375.19 522.08 348.29 550.05 348.29"/><circle class="cls-10" cx="536.9" cy="360.54" r="9.04" transform="translate(-97.1 232.91) rotate(-22.5)"/><path class="cls-9" d="M536,361.25a19.71,19.71,0,0,1,15-6.2L554,375.19Z"/><path class="cls-11" d="M523.38,357.13s8-1.63,16.33,4.61A93.45,93.45,0,0,1,554,375.19H526Z"/><circle class="cls-4" cx="127.5" cy="109.76" r="28.69" transform="translate(-40.27 122.31) rotate(-45)"/><circle class="cls-15" cx="127.5" cy="106.02" r="28.69" transform="translate(-15.34 21.79) rotate(-9.22)"/><circle class="cls-10" cx="127.5" cy="106.02" r="23.32" transform="translate(-15.34 21.79) rotate(-9.22)"/><path class="cls-3" d="M150.83,106c0,.62,0,1.23-.07,1.84a23.32,23.32,0,0,0-46.5,0c-.05-.61-.08-1.22-.08-1.84a23.33,23.33,0,1,1,46.65,0Z"/><path class="cls-22" d="M127.51,108.45a.58.58,0,0,1-.47-.23L115.6,92.81a.58.58,0,1,1,.93-.69l11.17,15,12.68-5.57a.58.58,0,1,1,.47,1.07l-13.11,5.75A.5.5,0,0,1,127.51,108.45Z"/><polygon class="cls-28" points="694.44 203.64 566.25 203.64 563.51 196.38 697.56 196.38 694.44 203.64"/><rect class="cls-29" x="563.46" y="187.75" width="134.25" height="8.63"/><polygon class="cls-8" points="574.5 196.38 577.99 203.71 586.23 203.71 588.58 196.38 574.5 196.38"/><polygon class="cls-8" points="686.99 196.38 683.5 203.71 675.25 203.71 672.91 196.38 686.99 196.38"/><rect class="cls-29" x="592.75" y="139.45" width="5.64" height="42.5" transform="matrix(0.99, -0.15, 0.15, 0.99, -17.47, 92.05)"/><polygon class="cls-30" points="595.14 139.27 589.57 140.12 590.8 135.87 591.43 133.66 592.7 135.57 595.14 139.27"/><rect class="cls-8" x="595.74" y="178.64" width="5.64" height="3.09" transform="matrix(0.99, -0.15, 0.15, 0.99, -20.38, 92.72)"/><path class="cls-7" d="M596.16,181.69h5.64a0,0,0,0,1,0,0V183a1.2,1.2,0,0,1-1.2,1.2h-3.24a1.2,1.2,0,0,1-1.2-1.2v-1.26A0,0,0,0,1,596.16,181.69Z" transform="translate(-20.79 92.79) rotate(-8.71)"/><polygon class="cls-8" points="592.7 135.57 590.8 135.87 591.43 133.66 592.7 135.57"/><rect class="cls-8" x="595.34" y="176.45" width="5.64" height="2.21" transform="translate(-19.99 92.61) rotate(-8.71)"/><path class="cls-8" d="M591.27,142,596,173.09a.42.42,0,0,0,.49.36h0a.42.42,0,0,0,.36-.49l-4.77-31.11a.42.42,0,0,0-.49-.36h0A.44.44,0,0,0,591.27,142Z"/><path class="cls-8" d="M593.45,141.64l4.77,31.12a.43.43,0,0,0,.49.36h0a.44.44,0,0,0,.36-.49l-4.77-31.12a.43.43,0,0,0-.49-.36h0A.44.44,0,0,0,593.45,141.64Z"/><rect class="cls-11" x="599.65" y="139.47" width="5.64" height="42.5" transform="translate(-0.52 1.97) rotate(-0.19)"/><polygon class="cls-30" points="605.22 139.46 599.58 139.48 601.42 135.45 602.38 133.37 603.35 135.45 605.22 139.46"/><rect class="cls-8" x="599.71" y="178.89" width="5.64" height="3.09" transform="translate(-0.59 1.97) rotate(-0.19)"/><path class="cls-7" d="M599.72,182h5.64a0,0,0,0,1,0,0v1.26a1.2,1.2,0,0,1-1.2,1.2h-3.24a1.2,1.2,0,0,1-1.2-1.2V182A0,0,0,0,1,599.72,182Z" transform="translate(-0.59 1.96) rotate(-0.19)"/><polygon class="cls-8" points="603.35 135.45 601.42 135.45 602.38 133.37 603.35 135.45"/><rect class="cls-9" x="599.71" y="176.67" width="5.64" height="2.21" transform="translate(-0.58 1.97) rotate(-0.19)"/><path class="cls-9" d="M601,141.57l.1,31.48a.42.42,0,0,0,.43.42h0A.43.43,0,0,0,602,173l-.1-31.47a.43.43,0,0,0-.43-.43h0A.43.43,0,0,0,601,141.57Z"/><path class="cls-9" d="M603.19,141.56,603.3,173a.43.43,0,0,0,.43.43h0a.44.44,0,0,0,.43-.44l-.11-31.47a.43.43,0,0,0-.43-.43h0A.43.43,0,0,0,603.19,141.56Z"/><rect class="cls-7" x="606.35" y="139.45" width="5.64" height="42.5" transform="translate(28.66 -84.09) rotate(8.09)"/><polygon class="cls-30" points="614.94 140.06 609.36 139.27 611.77 135.55 613.01 133.62 613.67 135.82 614.94 140.06"/><rect class="cls-8" x="603.57" y="178.67" width="5.64" height="3.09" transform="translate(31.38 -83.5) rotate(8.09)"/><path class="cls-7" d="M603.18,181.73h5.64a0,0,0,0,1,0,0V183a1.2,1.2,0,0,1-1.2,1.2h-3.24a1.2,1.2,0,0,1-1.2-1.2v-1.26A0,0,0,0,1,603.18,181.73Z" transform="translate(31.77 -83.43) rotate(8.09)"/><polygon class="cls-8" points="613.67 135.82 611.77 135.55 613.01 133.62 613.67 135.82"/><rect class="cls-5" x="605.66" y="174.77" width="2.21" height="5.64" transform="translate(345.6 753.35) rotate(-81.91)"/><path class="cls-5" d="M610.46,141.54,606,172.7a.44.44,0,0,0,.36.49h0a.43.43,0,0,0,.49-.37l4.43-31.16a.44.44,0,0,0-.37-.49h0A.43.43,0,0,0,610.46,141.54Z"/><path class="cls-5" d="M612.64,141.85,608.21,173a.44.44,0,0,0,.37.49h0a.44.44,0,0,0,.49-.37L613.49,142a.42.42,0,0,0-.36-.49h0A.43.43,0,0,0,612.64,141.85Z"/><polygon class="cls-15" points="616.77 156.28 616.48 158.56 616.21 160.63 615.81 163.77 615.54 165.82 615.13 168.99 614.87 171.01 614.46 174.2 614.2 176.2 613.79 179.42 613.53 181.39 613.12 184.64 612.86 186.58 612.65 188.26 590.49 188.26 590.27 186.58 590.02 184.64 589.6 181.39 589.35 179.42 588.93 176.2 588.68 174.2 588.26 171.01 588 168.99 587.59 165.82 587.33 163.77 586.92 160.63 586.65 158.56 586.36 156.28 616.77 156.28"/><polygon class="cls-16" points="616.48 158.56 616.21 160.63 586.92 160.63 586.65 158.56 616.48 158.56"/><polygon class="cls-16" points="615.81 163.77 615.54 165.82 587.59 165.82 587.33 163.77 615.81 163.77"/><polygon class="cls-16" points="615.13 168.99 614.87 171.01 588.26 171.01 588 168.99 615.13 168.99"/><polygon class="cls-16" points="614.46 174.2 614.2 176.2 588.93 176.2 588.68 174.2 614.46 174.2"/><polygon class="cls-16" points="613.79 179.42 613.53 181.39 589.6 181.39 589.35 179.42 613.79 179.42"/><polygon class="cls-16" points="613.12 184.64 612.86 186.58 590.27 186.58 590.02 184.64 613.12 184.64"/><rect class="cls-15" x="642.55" y="167.02" width="31.1" height="4.47"/><path class="cls-15" d="M674.07,184.52c-3.13,3.77-12.18,3.83-15.07,3.75h0l-.9,0s-12.21.79-16-3.72c-2.13-2.57-.94-6.42.49-9.26.34-.68.7-1.3,1-1.84.72-1.17,1.3-1.93,1.3-1.93h26.31a25.39,25.39,0,0,1,2.32,3.77C675,178.1,676.21,182,674.07,184.52Z"/><path class="cls-16" d="M648,181.07c-1.31,4.16,3.6,7.32,10.06,7.17,0,0-12.21.79-16-3.72-2.13-2.57-.94-6.42.49-9.26l.11-.21.1-.2c.28-.52.56-1,.82-1.43.72-1.17,1.3-1.93,1.3-1.93h26.31a25.39,25.39,0,0,1,2.32,3.77H661.81a23,23,0,0,0-8.61,1.63C650.89,177.83,648.64,179.19,648,181.07Z"/><path class="cls-11" d="M669.06,163c-.36.54-.71,1.05-1,1.5-1.07,1.46-1.93,2.43-2,2.51H650.19c-.06-.08-.92-1.05-2-2.51-.33-.45-.69-1-1.05-1.5-1.94-2.89-4-6.79-3.43-9.77a4.7,4.7,0,0,1,.78-2,2,2,0,0,1,.56-.5c1.71-1,4.32,1.33,5.15,1.26,1.11-.1-.7-5.68-3.29-9.63-2.42-3.7-4-8.64-1-10.42l.33-.18.34-.14c3.85-1.42,5.17,3.75,6.79,3s-3.29-17.2,4.39-17.23a2.29,2.29,0,0,1,.37,0,2.44,2.44,0,0,1,.38,0c7.67,0,2.79,16.53,4.38,17.23s2.94-4.46,6.79-3l.34.14.34.18c3,1.78,1.39,6.72-1,10.42-2.59,3.95-4.41,9.53-3.29,9.63.82.07,3.44-2.26,5.14-1.26a2,2,0,0,1,.57.5,4.58,4.58,0,0,1,.77,2C673.05,156.22,671,160.12,669.06,163Z"/><path class="cls-9" d="M658.48,117.47V167h-.75V117.47a2.29,2.29,0,0,1,.37,0A2.44,2.44,0,0,1,658.48,117.47Z"/><path class="cls-9" d="M658.38,145.86l-.28.24-.28.25-.09-.11-12.17-14.05.32-.21a2.55,2.55,0,0,1,.33-.17l11.52,13.29.37.43Z"/><path class="cls-9" d="M658.38,166.17l-.28.24-.28.25-.09-.11-13.24-15.28a2,2,0,0,1,.56-.5l12.68,14.64.37.43Z"/><path class="cls-9" d="M670.64,132.19l-12.16,14.05-.1.11-.28-.25-.28-.24.28-.33.38-.43L670,131.81l.34.17Z"/><path class="cls-9" d="M671.71,151.27l-13.23,15.28-.1.11-.28-.25-.28-.24.28-.33.38-.43,12.67-14.64A1.87,1.87,0,0,1,671.71,151.27Z"/></g></g></svg>