<svg xmlns="http://www.w3.org/2000/svg" viewBox="0 0 750 500"><defs><style>.cls-1{fill:#f8e9d3;}.cls-2{fill:#ead5b9;}.cls-3{fill:#dbbf9f;}.cls-4{fill:#f4ad4b;}.cls-5{fill:#d57635;}.cls-6{fill:#e05042;}.cls-7{fill:#b11722;}.cls-8{fill:#f69d84;}.cls-9{fill:#1e453e;}.cls-10{fill:#396c61;}.cls-11{fill:#ff7c66;}.cls-12{fill:#26120c;}.cls-13{opacity:0.5;}.cls-14{fill:#fff;}.cls-15{fill:#398889;}.cls-16{fill:#564c54;}.cls-17{fill:#7d529a;}.cls-18{fill:#b98fe5;}.cls-19{fill:#e8d2ff;}.cls-20{fill:#46235f;}.cls-21{fill:#39252b;}.cls-22{fill:#7f5c55;}.cls-23{fill:#644946;}.cls-24{fill:#dddac7;}</style></defs><g id="BACKGROUND"><rect class="cls-1" width="750" height="500"/></g><g id="OBJECTS"><path class="cls-2" d="M405.62,188.54a150.59,150.59,0,0,1-67.19-27.34c-29.68-21.5-91.78-58.1-151-39.87-81.72,25.14-82.08,97.88-60.8,137.39s172.22,155.21,367.9,136.8c175.1-16.48,209.22-205,115.84-239.17C529.35,126.75,501.71,202.16,405.62,188.54Z"/><path class="cls-2" d="M203,333.35s-12.23-5.59-17,4.12,12.68,19.67,22.18,16.81S216.05,337.11,203,333.35Z"/><path class="cls-2" d="M396,158.27s-13.3-4.17-17,6.44,15.59,18.6,25,14.43S409.86,160.46,396,158.27Z"/><ellipse class="cls-3" cx="377.84" cy="439.04" rx="180.44" ry="17.84"/><path class="cls-4" d="M479,412.54a69.69,69.69,0,0,1-6.95,6.08c-12.54,9.63-29.88,16.53-52.91,18.84C301.36,449.25,262.44,394,252.93,309c-4.24-37.89,5.68-62.88,18-79,1.29-1.67,2.6-3.26,3.92-4.74.75-.85,1.52-1.67,2.3-2.47a70.09,70.09,0,0,1,61.34-20.15c17.71,2.92,33.8,12.38,46.86,31.28,20.87,30.23,1.12,56.22,60.79,58C491.79,293.25,520.73,370.9,479,412.54Z"/><path class="cls-5" d="M298.68,229s-13.92,29.8,2.16,84.5,37.38,50.39,51.13,50.39c24,0,72.72-22.65,82.23-40.48s-8.43-18.91-42.05-21.54S333.45,217.19,298.68,229Z"/><path class="cls-5" d="M328.89,386.83a1,1,0,0,1-.69-1.73,124.08,124.08,0,0,1,31-21.79,70.62,70.62,0,0,1,13.66-5.23,1,1,0,0,1,.45,1.95c-.24.05-21.17,5.06-43.74,26.53A1,1,0,0,1,328.89,386.83Z"/><path class="cls-5" d="M332.86,373.44a1,1,0,0,1-.56-1.83c.46-.31,11.65-7.73,29-9.63a1,1,0,1,1,.22,2,68.33,68.33,0,0,0-28.08,9.29A.94.94,0,0,1,332.86,373.44Z"/><path class="cls-5" d="M296.54,290.68a1,1,0,0,1-1-.87A56.1,56.1,0,0,0,285.18,264a49.7,49.7,0,0,0-8.28-9,1,1,0,0,1,1.23-1.58,50.58,50.58,0,0,1,8.63,9.38,58.24,58.24,0,0,1,10.78,26.83,1,1,0,0,1-.87,1.12Z"/><path class="cls-5" d="M479,412.54a69.69,69.69,0,0,1-6.95,6.08c-14.5,8.71-32.18,14.43-51.66,16.67a161.6,161.6,0,0,1-67.81-6.73c-41.34-13.39-71.17-42-84-80.66-7-21.18-10.48-41.78-10.26-61.22a139.06,139.06,0,0,1,7.49-44.2,125.91,125.91,0,0,1,5.1-12.44c1.29-1.67,2.6-3.26,3.92-4.74.75-.85,1.52-1.67,2.3-2.47a117,117,0,0,0-9.36,20.46c-7.39,21.28-12.9,56.58,2.82,103.94,12.6,38,42,66.14,82.63,79.32,43.22,14,93.21,8.32,124.4-14.12A1.06,1.06,0,0,1,479,412.54Z"/><path class="cls-6" d="M306.28,194.58S290,178,313.71,166.25s51.58,6.18,56.16,19.22S306.28,194.58,306.28,194.58Z"/><path class="cls-7" d="M334.57,183.18a.65.65,0,0,1-.41-.15c-6.46-5.53-17.29-5-17.4-5h0a.63.63,0,0,1,0-1.25c.46,0,11.44-.54,18.28,5.31a.64.64,0,0,1,.07.89A.66.66,0,0,1,334.57,183.18Z"/><path class="cls-7" d="M318.7,184a.63.63,0,0,1-.3-1.18c.32-.16,7.81-4.11,13.12-2.87a.63.63,0,0,1-.28,1.22c-4.86-1.13-12.18,2.72-12.25,2.76A.59.59,0,0,1,318.7,184Z"/><path class="cls-8" d="M482.55,402.56l8.34,15.37a165.37,165.37,0,0,0,22.45,3.35c18.53,1.42,24-1.5,25.33,2.64,1,3.22-13.07,10.52-19.59,11.67s-20.76,7-30,8-13.32-10.64-15.41-14.8S465,410.58,465,410.58Z"/><path class="cls-6" d="M531.4,428a5.2,5.2,0,0,1-.78,3.16,4,4,0,0,1-.32.4c-3.28,3.62-16.42,5.38-16.42,5.38a6.27,6.27,0,0,0,1.71-4c.41-4.18-1.58-9.54-2.45-11.63-.23-.56-.39-.89-.39-.89a41.42,41.42,0,0,1,6.39-1,42,42,0,0,1,5.06-.08,30.53,30.53,0,0,1,4.32.44s.46.74,1,1.88A17.06,17.06,0,0,1,531.4,428Z"/><path class="cls-7" d="M525.82,425.43l-4.55.47s-.6-2.22-1.28-4.26c-.28-.83-.58-1.64-.85-2.24a42,42,0,0,1,5.06-.08,21.72,21.72,0,0,1,.88,2.39A16.91,16.91,0,0,1,525.82,425.43Z"/><path class="cls-6" d="M537.07,426.19s-42.45,13.43-48.15,14.43-8.8-.12-8.8-.12a36.58,36.58,0,0,0,.65,4.52,4.52,4.52,0,0,0,5.76,3.32c11.35-3.51,48.88-15.23,51.44-17.31C541,428.58,540.33,426,537.07,426.19Z"/><path class="cls-8" d="M443.45,399l-.55,13.81a165.52,165.52,0,0,0,17.58,14.35c15.19,10.71,21.41,11,20.42,15.23-.77,3.29-16.62,2.35-22.81,0s-21.42-4.61-29.88-8.45-6-16-5.68-20.6,1-15.1,1-15.1Z"/><path class="cls-6" d="M472.58,442.18a5.17,5.17,0,0,1-2.29,2.31,3.43,3.43,0,0,1-.48.19c-4.67,1.43-16.86-3.78-16.86-3.78a6.19,6.19,0,0,0,3.52-2.58c2.49-3.38,3.52-9,3.85-11.24.08-.61.12-1,.12-1a41.53,41.53,0,0,1,6,2.42,44,44,0,0,1,4.4,2.52,31.23,31.23,0,0,1,3.48,2.59s0,.88-.09,2.14A17.05,17.05,0,0,1,472.58,442.18Z"/><path class="cls-7" d="M469.08,437.15l-4.15-1.92s.62-2.22,1.08-4.32c.18-.86.34-1.7.41-2.37a44,44,0,0,1,4.4,2.52,21.42,21.42,0,0,1-.48,2.51A16.86,16.86,0,0,1,469.08,437.15Z"/><path class="cls-6" d="M478.36,443.55S435,433.39,429.61,431.33s-7.51-4.61-7.51-4.61a38.25,38.25,0,0,0-1.75,4.23,4.52,4.52,0,0,0,3.25,5.79c11.56,2.79,49.8,11.91,53.06,11.43C480.51,447.61,481.28,445,478.36,443.55Z"/><path class="cls-9" d="M458.19,289.32c-11-8.46-50.51-5-81.46-.6-.88,14,3.44,2.37.83,16.17,38.64,2,49.49,5,49.49,5s-5.78,31.45-5.5,44.6-4.38,51.21-4.38,51.21L445,411S473.94,301.44,458.19,289.32Z"/><path class="cls-10" d="M446.45,404.85a.7.7,0,0,1-.38,0l-27.52-5.62a.75.75,0,0,1,.3-1.47l27.52,5.62a.74.74,0,0,1,.58.89A.73.73,0,0,1,446.45,404.85Z"/><path class="cls-10" d="M423.86,399.5a.77.77,0,0,1-.4,0,.74.74,0,0,1-.57-.89c0-.13,3-14,3.14-36.5.17-22.63,7.1-56.34,7.17-56.68a.75.75,0,0,1,.89-.58.74.74,0,0,1,.58.89c-.07.33-7,33.9-7.14,56.38-.17,22.63-3.14,36.67-3.17,36.81A.75.75,0,0,1,423.86,399.5Z"/><path class="cls-8" d="M443.42,207.54c-1-1.37-.28-4.23-.54-6.47a26.38,26.38,0,0,1,1-10c1.35-3.75,5.95-14.55,9-15.81s-.18,8.36-.81,10.34a7.91,7.91,0,0,0-.32,3.57s9.15-21.5,11.69-22.24S462,179,461,182.14c0,0,7.79-15.82,9.55-15.78,3.52.09-4.63,17.9-4.63,17.9s7.24-13,9.34-11.72-5.57,15.2-5.57,15.2,5.95-7.77,8.26-7.52-8.94,17.53-11,20-7,9.5-10.2,12.21C454.58,214.24,446.64,211.88,443.42,207.54Z"/><path class="cls-11" d="M468.54,193.36a.66.66,0,0,0,.09-.86c-4.51-6.39-12.21-7.19-12.54-7.22a.64.64,0,0,0-.71.59.66.66,0,0,0,.59.71h0c.07,0,7.43.79,11.59,6.67a.65.65,0,0,0,.91.16Z"/><path class="cls-11" d="M456.23,204.38a.68.68,0,0,0,.17-.72c-2.73-7.33,1.66-11.62,1.7-11.66a.65.65,0,0,0-.89-1h0c-.21.2-5.06,4.94-2,13.07a.66.66,0,0,0,.84.39A.8.8,0,0,0,456.23,204.38Z"/><path class="cls-6" d="M382.21,192.49v-.05h0l0,0,.06.14.14.32.32.73c.22.5.45,1,.7,1.54.48,1,1,2.11,1.54,3.17,1.09,2.11,2.24,4.22,3.49,6.27.63,1,1.26,2.05,1.91,3.06s1.33,2,2,3,1.41,1.94,2.12,2.89,1.45,1.89,2.21,2.81a83.19,83.19,0,0,0,20.83,18.48c.48.3,1,.6,1.47.88s1,.58,1.5.86l.38.21a5,5,0,0,0-.52-.26,10.1,10.1,0,0,0-1.21-.42,8.44,8.44,0,0,0-1.3-.23,7.72,7.72,0,0,0-1.17,0,6.26,6.26,0,0,0-1.53.26,1.44,1.44,0,0,0-.44.19,4.14,4.14,0,0,0,.9-.57,21.57,21.57,0,0,0,1.84-1.6c.67-.65,1.38-1.4,2.1-2.21,1.46-1.61,2.92-3.47,4.38-5.41,2.9-3.91,5.74-8.22,8.49-12.64,1.38-2.21,2.74-4.46,4.07-6.72.67-1.13,1.34-2.27,2-3.41l1.9-3.29,23.19,10.55-.43,1.12-.41,1-.83,2c-.57,1.36-1.15,2.7-1.74,4q-1.79,4-3.75,7.95a154.57,154.57,0,0,1-8.95,15.68c-1.71,2.6-3.57,5.19-5.7,7.82-1.07,1.31-2.21,2.62-3.48,3.95a46,46,0,0,1-4.31,4,34.42,34.42,0,0,1-6,4,26.49,26.49,0,0,1-4.3,1.74,23.25,23.25,0,0,1-5.61,1,22.29,22.29,0,0,1-3.25-.09,21.39,21.39,0,0,1-3.33-.61,20.87,20.87,0,0,1-3.17-1.12c-.51-.22-1-.46-1.46-.71l-.53-.29c-.71-.39-1.42-.78-2.13-1.19s-1.4-.81-2.09-1.23c-1.39-.84-2.75-1.72-4.1-2.62s-2.66-1.85-3.95-2.83-2.56-2-3.81-3-2.45-2.09-3.64-3.18a105,105,0,0,1-12.89-14.15q-2.86-3.78-5.39-7.8c-1.67-2.67-3.26-5.38-4.7-8.18q-1.08-2.1-2.07-4.24c-.67-1.43-1.31-2.87-1.9-4.34s-1.18-3-1.72-4.49q-.39-1.14-.78-2.34c-.13-.41-.25-.81-.38-1.24l-.43-1.51Z"/><path class="cls-7" d="M421.23,247.66a.76.76,0,0,1-.91-.38,51,51,0,0,1-3.79-11.82.75.75,0,0,1,.6-.88.77.77,0,0,1,.88.61,50.42,50.42,0,0,0,3.65,11.42.74.74,0,0,1-.33,1Z"/><path class="cls-7" d="M415.44,243.44a.71.71,0,0,1-.41,0,.75.75,0,0,1-.55-.91,62.68,62.68,0,0,1,2.16-7,.75.75,0,1,1,1.35.66,59.66,59.66,0,0,0-2.05,6.76A.78.78,0,0,1,415.44,243.44Z"/><path class="cls-7" d="M458.15,223.39a.73.73,0,0,1-.64-.08c-7.44-4.92-22.7-11.53-22.85-11.6a.75.75,0,0,1,.59-1.37c.16.06,15.54,6.73,23.08,11.71a.75.75,0,0,1,.21,1A.68.68,0,0,1,458.15,223.39Z"/><path class="cls-6" d="M382.43,193c2,6-1.3,20.52,1.88,46.1.23,1.87.5,3.82.8,5.83s.61,3.83,1,5.84.7,3.79,1.11,5.76c.36,1.74.74,3.51,1.16,5.33s.88,3.77,1.37,5.72l.45,1.77.12.48c0,.14.08.28.11.43l.09.32.06.24c0,.14.07.28.11.43l0,.08.14.53s0,.05,0,.07l.12.47c.19.72.39,1.47.59,2.25.06.19.11.39.16.59s.14.53.22.79c.14.53.28,1.07.43,1.61.07.28.15.55.22.83.16.59.32,1.18.49,1.79l.09.33c.39,1.44.81,2.92,1.23,4.44.19.68.39,1.37.59,2.07s.47,1.69.72,2.54c.35,1.24.72,2.5,1.08,3.75l.47,1.59c.14.48.29,1,.43,1.44l.51,1.72c.12.38.23.76.35,1.14l.21.71c.15.47.29.94.43,1.41s.29.93.44,1.39l.3,1,.27.85c0,.08.05.15.07.23s.1.33.16.49c.11.33.21.66.31,1s.25.77.37,1.15c1,3,2,5.87,2.87,8.32-6.76,7.78-18.24,14.56-31.74,18.64l-7.49-4.88-6.27,7.95c-13.2,1.93-27.32,1.17-40.34-3.57-4.3-8.79-11.39-41-13.4-50.68q-.6-2.88-1.09-5.78a256.33,256.33,0,0,1-3-28.63l-.09-1.62c0-.07,0-.13,0-.2-.61-8.34-11.52-32.95-10.42-41.8,2.18-17.54,13.36-12.92,23.44-15.62a43.8,43.8,0,0,0,8.37-3.17c.95-.47,1.81-1,2.58-1.43.33-.19.64-.38.93-.58a32.21,32.21,0,0,0,4.84-3.74l22.87-2.39a17.44,17.44,0,0,0,7.73,5.2l.94.32c.47.14.94.28,1.41.4C371.3,186.27,379.85,185.12,382.43,193Z"/><path class="cls-7" d="M325,316.08a.64.64,0,0,1-.59-.41c-12.51-33.59-19-91.59-19.05-92.17a.62.62,0,1,1,1.24-.14c.07.58,6.53,58.43,19,91.87a.63.63,0,0,1-.36.81A.93.93,0,0,1,325,316.08Z"/><path class="cls-7" d="M347.16,192.36c.24.72-.64,1.67-2,2.1s-2.58.2-2.82-.53.63-1.67,1.95-2.1S346.92,191.63,347.16,192.36Z"/><path class="cls-7" d="M357.37,189.75c.24.73-.63,1.67-1.95,2.1s-2.58.2-2.82-.53.64-1.66,1.95-2.1S357.13,189,357.37,189.75Z"/><path class="cls-7" d="M360.26,195.21a.61.61,0,0,1-.6-.47.62.62,0,0,1,.45-.76c8.82-2.26,9.37-7.57,9.39-7.79a.63.63,0,0,1,1.25.1c0,.26-.59,6.41-10.33,8.9A.44.44,0,0,1,360.26,195.21Z"/><path class="cls-7" d="M373.82,250.52a78.23,78.23,0,0,1-28.77-5.76,73.54,73.54,0,0,1-13.83-7.19.63.63,0,1,1,.73-1,72,72,0,0,0,13.6,7.06,75.27,75.27,0,0,0,33.56,5.44.63.63,0,0,1,.67.58.62.62,0,0,1-.57.67C377.38,250.45,375.58,250.52,373.82,250.52Z"/><path class="cls-7" d="M338.22,272.65s28.1-7.17,45.6-7.38l5.35,23.18s-27.74,4.66-45.3,7.72Z"/><path class="cls-7" d="M322.46,200.65a25.45,25.45,0,0,1-12.37-3.07,21.21,21.21,0,0,1-6.77-5.66.62.62,0,0,1,.15-.87.62.62,0,0,1,.87.15h0a20.37,20.37,0,0,0,6.4,5.31c3.93,2.15,10.54,4.21,19.75,1.8a.64.64,0,0,1,.76.45.63.63,0,0,1-.45.77A33.22,33.22,0,0,1,322.46,200.65Z"/><path class="cls-12" d="M394.4,285c-.42-1.52-.84-3-1.23-4.44Z"/><path class="cls-12" d="M392.37,277.59c-.15-.54-.29-1.08-.43-1.61C392.08,276.51,392.22,277.05,392.37,277.59Z"/><path class="cls-7" d="M386.18,247.63a.32.32,0,0,1-.14,0,.74.74,0,0,1-.84-.64c-1.36-10.47-2.88-22.9-3-26.4a.75.75,0,1,1,1.5-.06c.14,3.45,1.65,15.83,3,26.26A.74.74,0,0,1,386.18,247.63Z"/><path class="cls-12" d="M358.84,130.86a11.22,11.22,0,0,1,2.49,14.38S358.73,135.09,358.84,130.86Z"/><path class="cls-12" d="M329.8,170.06s-4.7,4.57-5.66,1.2.67-5,.67-5-5.08,4.88-5.16,1.2,2.57-6.95,2.57-6.95-4.72-3.45-3.18-9,1.73-9.56.19-14.08-.84-9.19,1.39-11.21c3.27-3,8-2.5,8-2.5a12,12,0,0,1,12-8c9.44.22,14.94-7.15,19.7-5.23s10.22,17.65-2.59,22.31C357.7,132.74,332.31,149.76,329.8,170.06Z"/><path class="cls-8" d="M353.77,174.55l.63,6a18.89,18.89,0,0,1-2,1.7c-9.71,7.3-21.69.77-21.69.77l-2.16-20.68,22.18,10.78Z"/><path class="cls-12" d="M353.72,174l.68,6.49a18.89,18.89,0,0,1-2,1.7c-9.18-2.57-16.57-11.15-16.57-11.15l14.9,2Z"/><path class="cls-11" d="M358.47,147.34s3-4.36,5.3-.56,1.71,12.06-3.59,11.28Z"/><path class="cls-8" d="M363.55,161s1.3,12.33-11.53,13.64-22.49-7.79-23-8.21h0l-.41-2.58-2.13-13.38-1.14-7.15s-3-12.77,9.08-16.42c8.81-2.67,17.39-2.06,22.14,2.19.15.14.3.28.44.43a11.06,11.06,0,0,1,3.05,5.77l1.75,12.88.43,3.15Z"/><path class="cls-12" d="M326.48,150.46a7.2,7.2,0,0,1,4.16,4.41h0a3.28,3.28,0,0,0,2.89-3.87c-.2-1.09-.45-2.41-.76-3.89-.92-4.43-2.33-5.83.24-8.61s.15-4.42,2.49-6.39c2.57-2.15,8.92,1.66,13.58.7,5.55-1.15,5.08-4.91,9.9-.61,0,0-1.28-6.48-7.57-8.24s-24-.21-26.72,8.23S326.48,150.46,326.48,150.46Z"/><path class="cls-12" d="M336.63,141.15h0a3.1,3.1,0,0,0,4.19,1.15,16.42,16.42,0,0,1,3-1.34,2.84,2.84,0,0,0,1.77-3.73h0S339.17,137.31,336.63,141.15Z"/><path class="cls-12" d="M360.35,138.5h0a2.91,2.91,0,0,1-3.63,1.87,16.1,16.1,0,0,0-3-.65,2.68,2.68,0,0,1-2.36-3.1h0S357.27,135.45,360.35,138.5Z"/><path class="cls-11" d="M345.24,151.49c.09.9-1.68,1.82-4,2.06s-4.2-.3-4.3-1.19,1.68-1.82,4-2.06S345.14,150.59,345.24,151.49Z"/><path class="cls-11" d="M362.23,151.31a7.59,7.59,0,0,1-1,.15c-2.28.24-4.2-.29-4.3-1.19s1.68-1.82,4-2.06c.31,0,.61-.05.9-.05Z"/><path class="cls-12" d="M345.47,146.47c.13,1.23-.32,2.29-1,2.37s-1.36-.87-1.49-2.11.33-2.29,1-2.36S345.34,145.24,345.47,146.47Z"/><path class="cls-12" d="M357.86,145.18c.13,1.23-.32,2.29-1,2.36s-1.36-.87-1.48-2.1.32-2.29,1-2.37S357.74,143.94,357.86,145.18Z"/><path class="cls-12" d="M353.83,157.92c-4.51.47-8.6-3-8.66-3a.52.52,0,0,1-.05-.72.51.51,0,0,1,.72-.05c.27.23,6.62,5.6,11.77,1a.52.52,0,0,1,.72.05.51.51,0,0,1,0,.72A7.82,7.82,0,0,1,353.83,157.92Z"/><path class="cls-12" d="M332.53,161c0,.14-1.28,4.07-3.5,5.42h0l-.41-2.58A9,9,0,0,0,332.53,161Z"/><path class="cls-8" d="M329.37,152.68s-5.62-6.11-8.69-.53c-2.53,4.6,4.27,15.19,9.76,10.75Z"/><path class="cls-12" d="M329.56,161a.5.5,0,0,1-.55-.4,8.56,8.56,0,0,0-5.64-6.32.51.51,0,1,1,.28-1,9.55,9.55,0,0,1,6.35,7.09.5.5,0,0,1-.39.6Z"/><path class="cls-12" d="M324.5,158.39a.46.46,0,0,1-.41-.15.51.51,0,0,1,0-.72c.18-.18,1.85-1.81,3.42-1.58a.51.51,0,0,1,.43.58.5.5,0,0,1-.58.43c-.9-.13-2.15.89-2.55,1.29A.5.5,0,0,1,324.5,158.39Z"/><path class="cls-12" d="M351.16,152.15a.51.51,0,0,1-.56-.45.51.51,0,0,1,.46-.56,3.53,3.53,0,0,0,2.88-1.73c-2.46-4-4.91-8-4.94-8a.51.51,0,0,1,.17-.7.52.52,0,0,1,.7.17s2.57,4.19,5.08,8.22a.52.52,0,0,1,.05.44A4.38,4.38,0,0,1,351.16,152.15Z"/><g class="cls-13"><path class="cls-14" d="M351.41,148.11c.1,1.72-2.69,3.28-6.23,3.5s-6.5-1-6.61-2.72,2.69-3.28,6.23-3.49S351.3,146.4,351.41,148.11Z"/></g><g class="cls-13"><path class="cls-14" d="M367.81,147.42c.11,1.72-2.68,3.28-6.22,3.5s-6.5-1-6.61-2.72,2.69-3.28,6.23-3.49S367.71,145.71,367.81,147.42Z"/></g><path class="cls-12" d="M355,148.19a.38.38,0,0,1-.25-.09c-1.35-1.18-3.13,0-3.2,0A.39.39,0,0,1,351,148a.38.38,0,0,1,.11-.52,3.47,3.47,0,0,1,4.11,0,.37.37,0,0,1,0,.53A.41.41,0,0,1,355,148.19Z"/><path class="cls-12" d="M325,149.91a.37.37,0,0,1-.29-.14.38.38,0,0,1,.06-.53c5.66-4.39,13.63-1.22,14-1.09a.38.38,0,1,1-.28.7c-.08,0-7.9-3.14-13.22,1A.39.39,0,0,1,325,149.91Z"/><path class="cls-10" d="M314.47,323.47s1.76,51.61,64.06,31c33.27-11,48-19.41,48-19.41s10.49,29.12,16.13,41,21.31,41,21.31,41l26.88-6.62s-31.31-108.94-50.64-113.54-42.52,2.72-83.42,12C356.82,308.91,321.09,314.38,314.47,323.47Z"/><path class="cls-15" d="M464.75,407.3a.76.76,0,0,1-.87-.32c-8.68-14.05-17.3-35.31-24.22-52.4-2.92-7.19-5.43-13.4-7.53-18.05-2.85-6.28-4-7.54-4.44-7.72-1.93-.83-8.27,2-16.29,5.66-11.61,5.25-29.17,13.19-49.59,17.43-10.47,2.17-19.54.75-27-4.23-13.2-8.86-16.46-25.65-16.59-26.36a.75.75,0,1,1,1.47-.28c0,.17,3.29,16.9,16,25.4,7.06,4.74,15.75,6.08,25.81,4,20.25-4.21,37.72-12.1,49.27-17.33,9.33-4.22,15-6.76,17.5-5.67,2.31,1,6,9.8,12.77,26.59,6.9,17,15.49,38.23,24.11,52.17a.75.75,0,0,1-.25,1Z"/><path class="cls-15" d="M487.63,402.11h-.05l-27.16,7.18a.75.75,0,1,1-.39-1.45l27.17-7.18a.75.75,0,0,1,.43,1.44Z"/><rect class="cls-12" x="374.62" y="296.52" width="83.34" height="10.86" rx="0.29" transform="translate(-26.51 40.42) rotate(-5.39)"/><path class="cls-12" d="M467,302.62a6.93,6.93,0,0,0,6.18-5.74l10-59.58a5.61,5.61,0,0,0-6.06-6.52l-37.16,3.5a5.63,5.63,0,0,0-5,4.59l-12.35,67.94Z"/><path class="cls-6" d="M442.79,290.58l-.69,2.71,2.53-.19-.44,3.2-2.92.23-.76,3-3.34.25.76-3-2.06.16-.76,2.95-3.34.26.76-2.95-2.52.19.44-3.2,2.92-.23.68-2.71-2.52.19.44-3.2,2.92-.23.75-2.95,3.34-.25-.76,2.95,2.07-.16.75-3,3.34-.26-.76,2.95,2.53-.19-.44,3.2Zm-3.34.25-2.06.16-.69,2.72,2.07-.16Z"/><path class="cls-4" d="M478.58,247.12c-.86,3.89-4.39,7.29-7.88,7.59s-5.62-2.6-4.75-6.49,4.4-7.29,7.89-7.59S479.45,243.23,478.58,247.12Z"/><path class="cls-12" d="M471.53,246.41c-.18.78-.56,1.43-.87,1.46s-.41-.58-.23-1.36.56-1.43.86-1.46S471.7,245.64,471.53,246.41Z"/><path class="cls-12" d="M474.82,246.13c-.17.77-.56,1.43-.86,1.45s-.41-.58-.24-1.36.56-1.43.87-1.46S475,245.35,474.82,246.13Z"/><path class="cls-12" d="M471.56,251.1c-2.72.23-2.66-2.74-2.66-2.77a.42.42,0,0,1,.29-.38.19.19,0,0,1,.27.2c0,.11,0,2.53,2.23,2.33s3.34-2.71,3.39-2.82a.39.39,0,0,1,.38-.26c.14,0,.19.18.12.34S474.27,250.86,471.56,251.1Z"/><path class="cls-12" d="M434.94,238.87l-12.25,67.38-4.24.4,12.25-67.38a5.61,5.61,0,0,1,5-4.59l4.24-.4A5.63,5.63,0,0,0,434.94,238.87Z"/><path class="cls-16" d="M423.08,305.81H423a.64.64,0,0,1-.51-.73l12.12-67.23a.62.62,0,0,1,.72-.51.63.63,0,0,1,.51.73L423.7,305.29A.64.64,0,0,1,423.08,305.81Z"/><path class="cls-16" d="M448.45,269.87c-.5,3.73,2.06,6.48,5.71,6.13a8.84,8.84,0,0,0,7.51-7.37c.5-3.73-2.05-6.48-5.7-6.13A8.86,8.86,0,0,0,448.45,269.87Z"/><path class="cls-8" d="M396.39,286.07s19.34-4.32,26.1-1.11l-2.37,12.27s-10.9-.75-13.44.51-2.68,6.15-12.46,6.43Z"/><path class="cls-6" d="M394.27,283.64l-2.27-.37-4.56-.74q-4.56-.76-9.09-1.62c-6.05-1.11-12.06-2.32-18-3.67-2.94-.68-5.85-1.4-8.7-2.15s-5.64-1.57-8.29-2.46a70.75,70.75,0,0,1-7.29-2.8,23.23,23.23,0,0,1-2.6-1.4l0,0-.08-.14c-.35-.55-.67-1.12-1-1.69-.64-1.14-1.26-2.29-1.84-3.47a75.79,75.79,0,0,1-3.16-7.26,90.14,90.14,0,0,1-4.3-15.55c-.5-2.68-.89-5.39-1.19-8.13s-.49-5.49-.58-8.25-.1-5.53,0-8.27c.06-1.37.14-2.72.25-4.05,0-.66.1-1.31.17-1.94l.1-.91.07-.62-31.27-4.86-.09.56-.05.42-.1.76-.16,1.44c-.09,1-.17,1.87-.24,2.78-.13,1.83-.21,3.62-.26,5.42-.09,3.58,0,7.13.14,10.69a131.68,131.68,0,0,0,2.86,21.2q.59,2.64,1.27,5.25c.47,1.75,1,3.48,1.53,5.21,1.09,3.46,2.36,6.89,3.79,10.26,1.34,3.09,2.81,6.14,4.45,9.12.14.26.28.52.43.78.89,1.61,1.85,3.2,2.83,4.77.5.78,1,1.56,1.52,2.33l.39.58.2.28.39.56a22.17,22.17,0,0,0,2.08,2.53,23.57,23.57,0,0,0,2,1.86c.64.55,1.24,1,1.83,1.44a39.18,39.18,0,0,0,3.34,2.12c1.48.83,2.88,1.51,4.23,2.1.56.25,1.12.49,1.66.71,1.87.76,3.65,1.39,5.41,2s3.47,1.08,5.17,1.54c3.41.92,6.73,1.69,10,2.37s6.57,1.28,9.83,1.82c6.52,1.08,13,1.92,19.45,2.63,3.23.34,6.45.65,9.69.93,1.61.14,3.23.27,4.85.39l2.44.17,2.51.15,2.4-24.42ZM332.89,268s-.05-.07,0,0a1.39,1.39,0,0,1,.27.22l.1.1C333.08,268.12,333,268,332.89,268Z"/><path class="cls-7" d="M323,295.73c-1.35-.59-2.75-1.27-4.23-2.1a39.18,39.18,0,0,1-3.34-2.12c-.59-.43-1.19-.89-1.83-1.44a23.57,23.57,0,0,1-2-1.86,22.17,22.17,0,0,1-2.08-2.53l-.39-.56-.2-.28-.39-.58c-.52-.77-1-1.55-1.52-2.33-1-1.57-1.94-3.16-2.83-4.77-.15-.26-.29-.52-.43-.78l.24-.12S324.23,276.53,323,295.73Z"/><path class="cls-7" d="M365.14,306.44a.8.8,0,0,1-.31,0c-.25,0-25.61-2.49-39.81-9.15a49.23,49.23,0,0,1-21.29-20.06.75.75,0,0,1,1.33-.69c.07.13,6.77,12.9,20.6,19.39s39.06,9,39.31,9a.76.76,0,0,1,.68.82A.75.75,0,0,1,365.14,306.44Z"/><path class="cls-7" d="M324.33,277.23a.76.76,0,0,1-.79-1.23,77.79,77.79,0,0,1,8.77-7.64.75.75,0,0,1,1.05.15.74.74,0,0,1-.16,1.05,76.68,76.68,0,0,0-8.56,7.47A.87.87,0,0,1,324.33,277.23Z"/><path class="cls-7" d="M332.64,269.94l-.08,0c-3,.63-6.92,1.91-7,1.92a.75.75,0,1,1-.47-1.43h0c.17-.05,4.06-1.31,7.12-2a.76.76,0,0,1,.89.58A.75.75,0,0,1,332.64,269.94Z"/><path class="cls-7" d="M325.89,251.61h0a.75.75,0,0,1-.93-.51c-.29-1-7-23.79-7-35.28a.75.75,0,1,1,1.5,0c0,11.28,6.88,34.62,6.95,34.86A.74.74,0,0,1,325.89,251.61Z"/><path class="cls-7" d="M319.38,222.93a.71.71,0,0,1-.63-.08.75.75,0,0,1-.24-1l2.46-3.93a.75.75,0,0,1,1-.23.74.74,0,0,1,.23,1l-2.46,3.93A.72.72,0,0,1,319.38,222.93Z"/><path class="cls-7" d="M382.36,307.38a.69.69,0,0,1-.32,0,.74.74,0,0,1-.66-.82L384,282.9a.74.74,0,0,1,.82-.66.75.75,0,0,1,.67.83l-2.58,23.68A.75.75,0,0,1,382.36,307.38Z"/><path class="cls-14" d="M362.68,269.81a.61.61,0,0,1-.59-.42c-7.27-21.67-17.75-75.66-17.85-76.2a.62.62,0,1,1,1.22-.24c.11.55,10.58,54.45,17.81,76a.62.62,0,0,1-.39.79A.69.69,0,0,1,362.68,269.81Z"/><path class="cls-14" d="M378.2,267.76a.63.63,0,0,1-.62-.55c-4.42-32.26-22.88-75.68-23.06-76.11a.62.62,0,0,1,.33-.82.62.62,0,0,1,.82.33c.18.43,18.7,44,23.15,76.43a.64.64,0,0,1-.54.71Z"/><path class="cls-14" d="M333.61,351.91a8.09,8.09,0,0,1-4.22-1.38c-5.32-3.33-11.76-13.43-14.15-28.47a.63.63,0,1,1,1.24-.2c2.32,14.66,8.49,24.43,13.58,27.61a5.82,5.82,0,0,0,4.74,1,4.32,4.32,0,0,0,2.6-2.31c4.43-8.35-3.27-33.5-3.35-33.75a.63.63,0,1,1,1.2-.37c.32,1.05,7.93,25.9,3.26,34.71a5.64,5.64,0,0,1-3.35,2.92A5.28,5.28,0,0,1,333.61,351.91Z"/><path class="cls-4" d="M299,431.84c-.16.7-.35,1.39-.57,2.06-1.47,4.51-4.17,8.11-7.84,9.6-13.91,5.64-27,3.69-53.57,3.07s-46.34-7.66-43.87-29.55a27.39,27.39,0,0,1,1-4.85,24.84,24.84,0,0,1,2.33-5.39h0a25.41,25.41,0,0,1,3.88-5,27.77,27.77,0,0,1,28.77-6.61c9.94,3.41,27.51,5.06,45.8,5.43C294.56,400.94,301.91,419.3,299,431.84Z"/><path class="cls-5" d="M299,431.84c-.16.7-.35,1.39-.57,2.06-4.71,4.11-13.59,6.7-26.45,7.73-4.05.32-8.49.48-13.28.48a327.8,327.8,0,0,1-38-2.54c-11.92-1.44-20-5.64-24-12.49a23.31,23.31,0,0,1-2.55-14.91,24.84,24.84,0,0,1,2.33-5.39c-1,3.17-3.29,12.17,1.14,19.78,3.81,6.54,11.61,10.57,23.17,12C262.57,443.53,291,441.1,299,431.84Z"/><path class="cls-5" d="M219.54,404.75a14.09,14.09,0,0,0-12.88,16.19l.09.48c1.76,8.81,13.61,8.54,46.51,8.85,25.77.24,39-9,32.16-20.37C280,400.85,236.93,403.34,219.54,404.75Z"/><path class="cls-12" d="M281.69,411.41c-12,14.93-60.9,15.77-67.31,4.59-3.13-5.44-2.27-12.41-.56-18.14.18-.6.37-1.19.56-1.76a53.79,53.79,0,0,1,4-8.91s-.2,5.32,17.84,3.4a59.58,59.58,0,0,1,6.92-.28l1.42,0C264,390.93,292.05,398.51,281.69,411.41Z"/><path class="cls-4" d="M242.39,402.52c-2.82,3.15-7.73,4.34-14.18,3.43l-.43-.06c-8.13-1.26-12.09-5.12-14-8,.18-.6.37-1.19.56-1.76,1.39,2.67,5,7.22,14,8.48,6,.84,10.45-.19,13-3,2.25-2.52,2.85-6.41,1.74-11.29l1.42,0C245.64,395.52,244.9,399.71,242.39,402.52Z"/><path class="cls-12" d="M274.91,400.55s11.48-.85,12.84-6.65-25-.71-27.88-12.64,8.74-21.45,12.52-18c4.49,4.14-5.33,5.9-5.86,12-.43,5.1,2.73,9.79,12.53,10.49s14.19,2.23,14.15,6.79c0,5-8,10.07-12.82,10.39S274.91,400.55,274.91,400.55Z"/><path class="cls-12" d="M224.53,382.8a30.57,30.57,0,0,0-8.95-7.38,1.15,1.15,0,0,0-1.68,1.12l1,10.16S222.92,387.38,224.53,382.8Z"/><path class="cls-16" d="M216.9,385.47c-.45-2.3-.56-4.72-1.09-7.44,0,0,6,3.57,6.35,5.53C222.16,383.56,218.85,386.07,216.9,385.47Z"/><path class="cls-12" d="M234.93,383.21a30.38,30.38,0,0,1,10.81-3.6,1.27,1.27,0,0,1,1.28,1.84l-4.19,8.36S234.76,388.06,234.93,383.21Z"/><path class="cls-16" d="M241.06,388.47c1.26-2,2.24-4.2,3.72-6.53,0,0-6.87,1.14-7.92,2.84C236.86,384.78,239,388.32,241.06,388.47Z"/><path class="cls-12" d="M220.08,383s-7.09,1.09-6.55,9.39,8.62,9.2,8.62,9.2,1.44,2.67,6.43,3.75c3.2.69,8,.47,9.17-1.88,0,0,6.95-2.54,6.86-8.73C244.53,387.84,236.26,379.42,220.08,383Z"/><path class="cls-12" d="M212.88,402.61s2.89,11.8,5.32,14.23a13.62,13.62,0,0,0,8.43,4.18c5.45.66,4.45,4.29,2.82,5.54-1.89,1.45-5.22.63-10.24.63-4.33,0-8.41-.87-9.87-3.71s-1.37-11.28.19-16C210.49,404.54,211.84,403,212.88,402.61Z"/><path class="cls-12" d="M249.52,403.39s-2.9,11.79-5.32,14.23a14.33,14.33,0,0,1-8.43,4.17c-4.11.65-3.73,4.54-2.82,5.55,1.58,1.77,5.22.62,10.23.62,4.33,0,9.46-1.73,10.92-4.58s.32-10.4-1.23-15.14C251.91,405.32,250.56,403.79,249.52,403.39Z"/><path class="cls-12" d="M273.73,401s7.63-1.82,10.09,3.93c3.86,9,.77,14.21-9.53,15.64s-22,3.39-13.17-3.94A49,49,0,0,0,273.73,401Z"/><path class="cls-16" d="M232.66,396.4s-3.07-.33-3.9.05c-1.37.63.84,3.2,2.25,3.41s2.78-1.43,2.76-2.5A1,1,0,0,0,232.66,396.4Z"/><path class="cls-16" d="M234.25,394a.15.15,0,0,0-.2.23,3.39,3.39,0,0,0,3.27,1.37,2.37,2.37,0,0,0,1.91-1.93.16.16,0,0,0-.29-.11,2.5,2.5,0,0,1-2.18,1.23A4.53,4.53,0,0,1,234.25,394Z"/><path class="cls-16" d="M222.31,393.4a.15.15,0,0,0-.24.18,3.38,3.38,0,0,0,3,1.95,2.37,2.37,0,0,0,2.24-1.54.15.15,0,0,0-.26-.16,2.54,2.54,0,0,1-2.38.81A4.69,4.69,0,0,1,222.31,393.4Z"/><path class="cls-14" d="M544.42,75.67V147.5a3.42,3.42,0,0,1-3.41,3.42H419.43A3.42,3.42,0,0,1,416,147.5V75.67a3.41,3.41,0,0,1,3.42-3.41H541A3.41,3.41,0,0,1,544.42,75.67Z"/><path class="cls-17" d="M469.66,116.36a22.63,22.63,0,1,1-43.5-8.74L447,116.36,446,93.77c.35,0,.71,0,1.07,0A22.63,22.63,0,0,1,469.66,116.36Z"/><path class="cls-18" d="M443.71,90a22.63,22.63,0,0,0-19.8,13.86l20.87,8.74Z"/><rect class="cls-17" x="521.02" y="100.78" width="3.11" height="3.11"/><rect class="cls-19" x="526.19" y="101.95" width="11.2" height="0.78" rx="0.03"/><rect class="cls-20" x="521.02" y="95.25" width="3.11" height="3.11"/><rect class="cls-19" x="526.19" y="96.41" width="11.2" height="0.78" rx="0.03"/><rect class="cls-17" x="521.02" y="106.32" width="3.11" height="3.11"/><rect class="cls-19" x="526.19" y="107.48" width="11.2" height="0.78" rx="0.03"/><path class="cls-19" d="M537,119.16H521.41a.39.39,0,0,1-.39-.38h0a.39.39,0,0,1,.39-.39H537a.38.38,0,0,1,.39.39h0A.38.38,0,0,1,537,119.16Z"/><path class="cls-19" d="M537,122.36H521.41A.39.39,0,0,1,521,122h0a.4.4,0,0,1,.39-.39H537a.39.39,0,0,1,.39.39h0A.38.38,0,0,1,537,122.36Z"/><path class="cls-19" d="M537,125.55H521.41a.39.39,0,0,1-.39-.39h0a.39.39,0,0,1,.39-.38H537a.38.38,0,0,1,.39.38h0A.38.38,0,0,1,537,125.55Z"/><path class="cls-19" d="M537,128.75H521.41a.4.4,0,0,1-.39-.39h0a.39.39,0,0,1,.39-.39H537a.38.38,0,0,1,.39.39h0A.39.39,0,0,1,537,128.75Z"/><path class="cls-19" d="M537,131.94H521.41a.39.39,0,0,1-.39-.39h0a.39.39,0,0,1,.39-.38H537a.38.38,0,0,1,.39.38h0A.38.38,0,0,1,537,131.94Z"/><path class="cls-19" d="M537,135.14H521.41a.4.4,0,0,1-.39-.39h0a.39.39,0,0,1,.39-.39H537a.38.38,0,0,1,.39.39h0A.39.39,0,0,1,537,135.14Z"/><path class="cls-19" d="M537,138.33H521.41a.39.39,0,0,1-.39-.39h0a.39.39,0,0,1,.39-.38H537a.38.38,0,0,1,.39.38h0A.38.38,0,0,1,537,138.33Z"/><path class="cls-12" d="M544.42,75.67v6H416v-6a3.41,3.41,0,0,1,3.42-3.41H541A3.41,3.41,0,0,1,544.42,75.67Z"/><path class="cls-19" d="M530.89,77a1.58,1.58,0,1,1-1.58-1.58A1.58,1.58,0,0,1,530.89,77Z"/><path class="cls-18" d="M536,77a1.58,1.58,0,1,1-1.58-1.58A1.58,1.58,0,0,1,536,77Z"/><path class="cls-17" d="M540.93,77a1.58,1.58,0,1,1-1.58-1.58A1.58,1.58,0,0,1,540.93,77Z"/><path class="cls-20" d="M469.66,116.36a22.54,22.54,0,0,1-5.83,15.16L447,116.36,446,93.77c.35,0,.71,0,1.07,0A22.63,22.63,0,0,1,469.66,116.36Z"/><rect class="cls-17" x="491.69" y="110.65" width="7.2" height="30.87"/><path class="cls-20" d="M491.69,133.38a28,28,0,0,0,7.2-3.73v11.87h-7.2Z"/><rect class="cls-17" x="479.92" y="119.23" width="7.2" height="22.29"/><path class="cls-20" d="M485.79,133.9c.45.06.89.1,1.33.12v7.5h-7.2v-7.43A13,13,0,0,1,485.79,133.9Z"/><rect class="cls-17" x="503.46" y="101.43" width="7.2" height="40.09"/><path class="cls-20" d="M510.67,123.4v18.12h-7.21V126.47C506,124.74,508.41,123.39,510.67,123.4Z"/><path class="cls-17" d="M510.38,89.74l-6.5,1.39,1.74,1.72L495.67,103l-3.49-3.42-12.36,12.59a1.22,1.22,0,0,0,0,1.72h0a1.22,1.22,0,0,0,1.72,0L492.21,103l3.49,3.43,11.66-11.89,1.75,1.72Z"/><rect class="cls-17" x="235.75" y="153.81" width="49.6" height="34.26" transform="translate(-0.25 0.38) rotate(-0.08)"/><polygon class="cls-20" points="235.73 153.84 235.74 156.04 260.56 177.99 285.33 155.97 285.33 153.77 260.56 175.87 235.73 153.84"/><polygon class="cls-20" points="265.33 171.53 283.94 188.04 285.38 188.03 285.38 187.16 266.4 170.33 265.33 171.53"/><polygon class="cls-20" points="235.78 187.35 235.78 188.11 237.35 188.1 255.91 171.55 254.84 170.35 235.78 187.35"/><polygon class="cls-17" points="285.33 153.77 260.56 175.87 235.73 153.84 285.33 153.77"/><circle class="cls-18" cx="282.99" cy="155.52" r="10.77"/><path class="cls-14" d="M280.79,160.64h0a1,1,0,0,1-.74-.31l-2.64-2.64a1,1,0,0,1,0-1.48,1.06,1.06,0,0,1,1.48,0l1.9,1.9,7.4-7.4a1,1,0,1,1,1.48,1.48l-8.14,8.14A1,1,0,0,1,280.79,160.64Z"/><path class="cls-14" d="M568.23,290.69V169a3.37,3.37,0,0,0-3.37-3.37H503.28a3.37,3.37,0,0,0-3.37,3.37V290.69a6.81,6.81,0,0,0,6.81,6.81h54.69A6.81,6.81,0,0,0,568.23,290.69Z"/><path class="cls-19" d="M558,258.05H512.49a1.5,1.5,0,0,1-1.5-1.5h0a1.5,1.5,0,0,1,1.5-1.5H558a1.5,1.5,0,0,1,1.5,1.5h0A1.5,1.5,0,0,1,558,258.05Z"/><path class="cls-19" d="M558,267.57H512.49a1.5,1.5,0,0,1-1.5-1.5h0a1.5,1.5,0,0,1,1.5-1.5H558a1.5,1.5,0,0,1,1.5,1.5h0A1.5,1.5,0,0,1,558,267.57Z"/><path class="cls-19" d="M558,277.09H512.49a1.5,1.5,0,0,1-1.5-1.5h0a1.5,1.5,0,0,1,1.5-1.5H558a1.5,1.5,0,0,1,1.5,1.5h0A1.5,1.5,0,0,1,558,277.09Z"/><path class="cls-19" d="M558,286.61H512.49a1.5,1.5,0,0,1-1.5-1.5h0a1.5,1.5,0,0,1,1.5-1.5H558a1.5,1.5,0,0,1,1.5,1.5h0A1.5,1.5,0,0,1,558,286.61Z"/><path class="cls-12" d="M568.23,169v9.34H499.91V169a3.37,3.37,0,0,1,3.37-3.37h61.58A3.37,3.37,0,0,1,568.23,169Z"/><path class="cls-19" d="M551.69,171.38a2.23,2.23,0,1,1-2.23-2.22A2.22,2.22,0,0,1,551.69,171.38Z"/><path class="cls-18" d="M558.88,171.38a2.22,2.22,0,1,1-2.22-2.22A2.21,2.21,0,0,1,558.88,171.38Z"/><path class="cls-17" d="M565.78,171.38a2.22,2.22,0,1,1-2.22-2.22A2.22,2.22,0,0,1,565.78,171.38Z"/><rect class="cls-17" x="513.44" y="230.43" width="7.68" height="18.57"/><rect class="cls-20" x="524.77" y="217.24" width="7.68" height="31.75"/><rect class="cls-17" x="537.32" y="207.51" width="7.68" height="41.49"/><rect class="cls-18" x="549.61" y="196.09" width="7.68" height="52.9"/><polygon class="cls-19" points="543.13 187.96 548.46 189.91 547.85 183.68 543.13 187.96"/><path class="cls-19" d="M511.32,221.41a.58.58,0,0,1-.54-.37.57.57,0,0,1,.34-.74c.23-.09,23.36-9,34.64-32.77a.57.57,0,0,1,.76-.27.59.59,0,0,1,.28.77c-11.49,24.25-35,33.26-35.28,33.35A.64.64,0,0,1,511.32,221.41Z"/><path class="cls-17" d="M249.63,92.88v19a4.55,4.55,0,0,0,4.54,4.55h34.48l10.41,3.73a1.32,1.32,0,0,0,1.68-1.72l-3.93-10.17V92.88a4.55,4.55,0,0,0-4.55-4.54H254.17A4.54,4.54,0,0,0,249.63,92.88Z"/><path class="cls-20" d="M279.58,102.92a3.29,3.29,0,1,0,3.29-3.29A3.29,3.29,0,0,0,279.58,102.92Z"/><path class="cls-20" d="M269.17,102.92a3.29,3.29,0,1,0,3.29-3.29A3.29,3.29,0,0,0,269.17,102.92Z"/><path class="cls-20" d="M258.76,102.92a3.29,3.29,0,1,0,3.29-3.29A3.29,3.29,0,0,0,258.76,102.92Z"/><rect class="cls-18" x="313.14" y="72.62" width="20.24" height="20.24" rx="1.91"/><path class="cls-14" d="M329,78.57c0-.14-.06-.28-.1-.42a3.07,3.07,0,0,0-.69-1.31,3.17,3.17,0,0,0-.82-.68.94.94,0,0,0-1.23.24l-1.68,2a1,1,0,0,0,.14,1.37c.3.27.62.52.94.78l.12.08a9.06,9.06,0,0,1-3.84,4.69l-.68-.57-.36-.29a1,1,0,0,0-1.17-.06,1.5,1.5,0,0,0-.32.3l-1.52,1.86a1.34,1.34,0,0,0-.3.65l0,.28a2.32,2.32,0,0,0,.27.46,3.76,3.76,0,0,0,1,.74,3,3,0,0,0,1.44.29,5.47,5.47,0,0,0,1-.19,8.14,8.14,0,0,0,2.28-1.1,12,12,0,0,0,1.92-1.63,19.55,19.55,0,0,0,2.13-2.66,9.91,9.91,0,0,0,1.22-2.38,5.42,5.42,0,0,0,.26-1.32l0-.55Z"/><rect class="cls-17" x="342.43" y="72.26" width="20.55" height="20.55" rx="1.71"/><path class="cls-14" d="M359.27,82.14c0,2.56-1.43,3.89-3.15,3.89A2.17,2.17,0,0,1,354,84.86,2.08,2.08,0,0,1,352,86a3.06,3.06,0,0,1-2.84-3.34c0-2.07,1.35-3.33,2.84-3.33a2.11,2.11,0,0,1,1.65.66v-.54h2.58v3.84c0,.56.23.74.52.74s.69-.38.69-1.88c0-2.43-1.81-4.14-4.58-4.14a4.37,4.37,0,0,0-4.6,4.48,4.31,4.31,0,0,0,4.55,4.5,6.42,6.42,0,0,0,2.71-.59l.56,1.65a8.13,8.13,0,0,1-3.27.65c-4,0-6.63-2.7-6.63-6.21s2.59-6.19,6.68-6.19C356.68,76.33,359.27,78.92,359.27,82.14Zm-5.6.55c0-.8-.42-1.22-1-1.22s-.95.42-.95,1.22.4,1.23.95,1.23S353.67,83.51,353.67,82.69Z"/><rect class="cls-20" x="370.13" y="72.26" width="20.55" height="20.55" rx="1.71"/><path class="cls-14" d="M381.47,87.27v1.46l-1.86,0,0-1.39a7.78,7.78,0,0,1-3.38-.95l1-2.26a6.33,6.33,0,0,0,3,.87c.89,0,1.2-.18,1.21-.5,0-1.15-5.1-.26-5.07-3.7,0-1.49,1.1-2.73,3.26-3V76.33h1.86v1.41a6.83,6.83,0,0,1,2.67.79l-1,2.24a5.6,5.6,0,0,0-2.57-.7c-.91,0-1.2.25-1.2.57,0,1.1,5.1.22,5.07,3.62C384.56,85.7,383.52,86.93,381.47,87.27Z"/><path class="cls-3" d="M192.1,437.73c0,2.89-28.49,5.23-63.64,5.23s-63.63-2.34-63.63-5.23,28.49-5.23,63.63-5.23S192.1,434.84,192.1,437.73Z"/><rect class="cls-21" x="86.7" y="386.73" width="81.15" height="6.43" rx="0.91"/><rect class="cls-22" x="88.04" y="315.51" width="78.64" height="13.58" rx="2.23"/><path class="cls-10" d="M126.62,280.19h-7.21s-.35-.72-1-2c-.3-.62-.65-1.37-1.06-2.24-1-2.18-2.38-5.1-3.93-8.55l0-.09c-9.72-21.61-27.16-63.57-20-71.91,8.1-9.48,17.77,4.72,24.8,31.59.48,1.84.95,3.75,1.41,5.71a309.81,309.81,0,0,1,6.06,37q.33,3.07.61,6.21C126.39,277.33,126.5,278.76,126.62,280.19Z"/><path class="cls-9" d="M126.26,275.92l-2.18,4.28h-4.67l-1-2-.25-51.2A305.56,305.56,0,0,1,126.26,275.92Z"/><path class="cls-9" d="M124.35,280.2h-1.18l-22.71-74.4a.56.56,0,0,1,1.08-.33Z"/><path class="cls-10" d="M145.05,265.09l-1.55,3.45c-1.33,2.94-2.49,5.45-3.4,7.38-1.27,2.71-2,4.27-2,4.27h-7.21c.11-1.43.23-2.86.36-4.27.18-2,.37-4,.58-5.92a309.63,309.63,0,0,1,5.86-36.29c.37-1.66.76-3.27,1.15-4.84,7.07-28.1,17-43.2,25.29-33.5C171,203.43,154.91,243,145.05,265.09Z"/><path class="cls-9" d="M131.22,275.92l2.18,4.28h4.67l1-2,.26-51.2A305.56,305.56,0,0,0,131.22,275.92Z"/><path class="cls-9" d="M133.13,280.2h1.18L157,205.8a.56.56,0,0,0-.38-.7.55.55,0,0,0-.7.37Z"/><path class="cls-10" d="M137.66,233.71c-1,14.22-2.41,27.53-3.42,36.23-.73,6.36-1.24,10.25-1.24,10.25h-6.39q-1.11-5.34-2.07-10.6c-2.36-13-4-25.43-5-36.92-3.74-44,2.11-74,12.84-66C140.13,172.38,139.69,204.92,137.66,233.71Z"/><path class="cls-9" d="M143.5,268.54c-1.33,2.94-2.49,5.45-3.4,7.38-1.27,2.71-2,4.27-2,4.27H119.41s-.35-.72-1-2c-.3-.62-.65-1.37-1.06-2.24-1-2.18-2.38-5.1-3.93-8.55a68.78,68.78,0,0,0,11.09,2.22l1.11.12a60.41,60.41,0,0,0,6.15.29c.8,0,1.62,0,2.44-.06A44.75,44.75,0,0,0,143.5,268.54Z"/><path class="cls-9" d="M129.26,180.41l-.77,99.79h-1.12l.76-99.8a.57.57,0,1,1,1.13,0Z"/><path class="cls-6" d="M161.31,279.43l-.93,2.47-.59,1.57L158.1,288l-.59,1.56-1.74,4.62-.59,1.56-7.46,19.8H107l-7.46-19.8L99,294.15l-1.74-4.62-.6-1.56-1.69-4.5-.59-1.57-.93-2.47a2.59,2.59,0,0,1,2.43-3.51h63.06A2.59,2.59,0,0,1,161.31,279.43Z"/><polygon class="cls-7" points="160.38 281.9 159.79 283.47 94.92 283.47 94.33 281.9 160.38 281.9"/><polygon class="cls-7" points="158.1 287.96 157.51 289.53 97.21 289.53 96.61 287.96 158.1 287.96"/><polygon class="cls-7" points="155.77 294.15 155.18 295.71 99.53 295.71 98.94 294.15 155.77 294.15"/><polygon class="cls-23" points="116.44 329.09 114.19 336.37 82.74 437.73 76.6 437.73 96.54 338.44 98.42 329.09 116.44 329.09"/><polygon class="cls-21" points="98.42 329.09 116.44 329.09 114.19 336.37 96.54 338.44 98.42 329.09"/><polygon class="cls-23" points="178.3 437.73 172.15 437.73 139.78 333.37 138.45 329.09 156.48 329.09 156.93 331.36 156.94 331.36 178.3 437.73"/><polygon class="cls-21" points="156.93 331.36 139.78 333.37 138.45 329.09 156.48 329.09 156.93 331.36"/><rect class="cls-22" x="86.7" y="372.75" width="81.15" height="6.43" rx="2.48"/><circle class="cls-2" cx="610.21" cy="111.36" r="28.38" transform="translate(99.98 464.1) rotate(-45)"/><circle class="cls-6" cx="610.21" cy="107.67" r="28.38" transform="translate(102.59 463.02) rotate(-45)"/><circle class="cls-14" cx="610.21" cy="107.67" r="23.08" transform="translate(-9.36 98.42) rotate(-9.15)"/><path class="cls-2" d="M633.29,107.67c0,.61,0,1.22-.07,1.82a23.08,23.08,0,0,0-46,0c-.05-.6-.07-1.21-.07-1.82a23.08,23.08,0,1,1,46.15,0Z"/><path class="cls-12" d="M610.21,110.07a.58.58,0,0,1-.46-.23L598.43,94.6a.58.58,0,0,1,.93-.69l11,14.87L623,103.27a.57.57,0,0,1,.76.3.59.59,0,0,1-.3.76l-13,5.69A.69.69,0,0,1,610.21,110.07Z"/><path class="cls-3" d="M689.93,439.22c0,3.65-24.57,6.6-54.87,6.6s-54.88-2.95-54.88-6.6,24.57-6.61,54.88-6.61S689.93,435.57,689.93,439.22Z"/><polygon class="cls-23" points="686.24 251.49 673.43 438.8 596.69 438.8 583.88 251.49 686.24 251.49"/><polygon class="cls-21" points="685.38 263.96 585.13 269.74 584.41 259.23 685.71 259.23 685.38 263.96"/><rect class="cls-22" x="577.74" y="247.61" width="114.64" height="11.62" rx="2.32"/><polygon class="cls-21" points="674.77 280.57 672.25 324.92 597.86 324.92 595.34 280.57 674.77 280.57"/><path class="cls-23" d="M638.77,304.57a3.72,3.72,0,1,1-3.71-3.71A3.72,3.72,0,0,1,638.77,304.57Z"/><polygon class="cls-21" points="671.27 335.3 668.97 375.73 601.14 375.73 598.85 335.3 671.27 335.3"/><path class="cls-23" d="M638.77,357a3.72,3.72,0,1,1-3.71-3.72A3.71,3.71,0,0,1,638.77,357Z"/><polygon class="cls-21" points="668.25 385.95 666.14 423 603.97 423 601.87 385.95 668.25 385.95"/><path class="cls-23" d="M638.77,404.48a3.72,3.72,0,1,1-3.71-3.72A3.71,3.71,0,0,1,638.77,404.48Z"/><path class="cls-10" d="M667.88,181.68c-1.13,6.2-2.43,11-2.43,11s-3.11,6.95-5.89,9c-1.93,1.43-3.71.47-4.14-6.92-.07-1.2-.11-2.57-.1-4.12,0,0-.44-3.54-.65-8.41-.45-10.59.17-27.45,8.72-27.75C671.47,154.19,670,170.29,667.88,181.68Z"/><path class="cls-9" d="M654.67,182.23c1.25,2.49,3.31,5.22,6.3,5s5.46-3.12,6.91-5.53c-1.13,6.2-2.43,11-2.43,11s-3.11,6.95-5.89,9c-1.7-1.08-3.09-3.57-4.14-6.92Z"/><path class="cls-9" d="M660,200a.51.51,0,0,1-.5-.47c-.47-7.35,2-31.21,2.1-32.22a.5.5,0,0,1,1,.1c0,.25-2.57,24.79-2.1,32.06a.49.49,0,0,1-.46.52Z"/><path class="cls-10" d="M662,214.27H651.64s-9.41-.7-6.47-8.65-.84-9.83-5.38-15.06-11.34-16.32-3.78-19.72,15.12,4.8,18.16,13.59a37.65,37.65,0,0,1,1.58,7.68c.18,1.32.37,2.61.66,3.89a17,17,0,0,0,3.15,6.79l.14.18C664.49,209,662,214.27,662,214.27Z"/><path class="cls-9" d="M662,214.27h-9A25.14,25.14,0,0,1,656.41,196a17,17,0,0,0,3.15,6.79l.14.18C664.49,209,662,214.27,662,214.27Z"/><path class="cls-9" d="M654.56,214.05a.48.48,0,0,1-.49-.48c-.5-17.76-12.38-33.16-12.5-33.31a.5.5,0,1,1,.78-.61c.12.15,12.2,15.8,12.71,33.9a.49.49,0,0,1-.49.5Z"/><path class="cls-10" d="M685.91,190.56c-7.81,6.36-11.84,7-10.84,13.13a34.31,34.31,0,0,1,.61,5.7c0,3.52-1.17,6.15-5.39,6.57a25.84,25.84,0,0,1-11.6-1.69,32.88,32.88,0,0,1-2.16-9.79c-.27-4.93.84-10.55,6.1-13.92,10.93-7,8.92-34.62,23.28-32S693.73,184.19,685.91,190.56Z"/><path class="cls-9" d="M675.68,209.39c0,3.52-1.17,6.15-5.39,6.57a25.84,25.84,0,0,1-11.6-1.69,32.88,32.88,0,0,1-2.16-9.79C659,206,666.54,210.13,675.68,209.39Z"/><path class="cls-9" d="M664.81,213.13a.49.49,0,0,1-.49-.43c0-.14-1.56-14,7.46-22.35,8.74-8.12,12.18-21.43,12.21-21.56a.49.49,0,0,1,.6-.36.48.48,0,0,1,.36.6c0,.13-3.54,13.72-12.49,22-8.67,8.05-7.17,21.37-7.16,21.51a.5.5,0,0,1-.43.55Z"/><polygon class="cls-6" points="674.7 247.78 677.23 226.23 677.35 225.23 677.69 222.28 677.81 221.27 678.15 218.39 678.26 217.39 678.98 211.33 642.97 211.33 643.68 217.39 643.8 218.39 644.13 221.27 644.25 222.28 644.6 225.23 644.72 226.23 647.24 247.78 674.7 247.78"/><polygon class="cls-7" points="678.26 217.39 678.15 218.39 643.8 218.39 643.68 217.39 678.26 217.39"/><polygon class="cls-7" points="677.81 221.27 677.69 222.28 644.25 222.28 644.13 221.27 677.81 221.27"/><polygon class="cls-7" points="677.35 225.23 677.23 226.23 644.72 226.23 644.6 225.23 677.35 225.23"/><polygon class="cls-10" points="621.46 213.31 621.2 216.33 621.06 217.89 620.93 219.36 620.75 221.42 620.66 222.4 620.28 226.73 619.87 231.44 619.85 231.66 619.59 234.65 619.47 236.12 619.38 237.06 618.97 241.87 618.45 247.84 601.86 247.84 601.74 246.48 601.23 240.67 600.93 237.17 600.84 236.12 600.71 234.65 600.43 231.44 600.42 231.34 600.11 227.86 599.64 222.4 599.61 222 599.37 219.36 599.3 218.53 599.25 217.89 598.84 213.31 621.46 213.31"/><polygon class="cls-9" points="621.06 217.89 620.93 219.36 599.37 219.36 599.3 218.53 599.25 217.89 621.06 217.89"/><polygon class="cls-9" points="619.59 234.65 619.47 236.12 600.84 236.12 600.71 234.65 619.59 234.65"/><polygon class="cls-14" points="620.66 222.4 620.29 226.73 619.87 231.44 600.43 231.44 600.42 231.35 600.11 227.86 599.64 222.4 620.66 222.4"/><rect class="cls-15" x="597.68" y="208.89" width="24.93" height="4.42"/><path class="cls-10" d="M601,205.14h18.22a1.48,1.48,0,0,1,1.48,1.48v2.27a0,0,0,0,1,0,0H599.56a0,0,0,0,1,0,0v-2.27A1.48,1.48,0,0,1,601,205.14Z"/><polygon class="cls-22" points="128.29 128.57 91.37 128.57 85.96 91.65 122.89 91.65 128.29 128.57"/><polygon class="cls-21" points="85.96 91.65 80.85 128.57 91.37 128.57 85.96 91.65"/><polygon class="cls-24" points="93.61 125.94 88.98 94.28 120.64 94.28 125.28 125.94 93.61 125.94"/><polygon class="cls-14" points="94.06 125.42 89.58 94.81 120.19 94.81 124.67 125.42 94.06 125.42"/><polygon class="cls-3" points="117.44 98.55 120.83 121.67 96.8 121.67 93.41 98.55 117.44 98.55"/><circle class="cls-2" cx="106.14" cy="109.08" r="7.77" transform="translate(-33.66 48.92) rotate(-22.5)"/><path class="cls-9" d="M105.4,109.69a17,17,0,0,1,12.89-5.33l2.54,17.31Z"/><path class="cls-10" d="M94.52,106.15s6.89-1.4,14,4a80.43,80.43,0,0,1,12.28,11.56h-24Z"/><polygon class="cls-3" points="221.31 143.97 67.18 143.97 65.16 136.93 223.62 136.93 221.31 143.97"/><rect class="cls-23" x="65.12" y="128.57" width="158.64" height="8.36"/><polygon class="cls-21" points="73.03 136.93 76.42 144.03 84.4 144.03 86.67 136.93 73.03 136.93"/><polygon class="cls-21" points="213.39 136.93 210 144.03 202.02 144.03 199.75 136.93 213.39 136.93"/><path class="cls-6" d="M205.37,119.59h1.17v-1.75l-44.42.06a5.33,5.33,0,1,0,0,10.66l44.42-.05V127h-1.17Z"/><path class="cls-14" d="M205.67,119.59V127l-40.76.05a3.64,3.64,0,0,1-3.6-3.69,3.76,3.76,0,0,1,1.05-2.62,3.53,3.53,0,0,1,2.54-1.08Z"/><path class="cls-3" d="M205.67,121.47v1.13l-39.7.05a.57.57,0,0,1-.56-.57h0a.56.56,0,0,1,.56-.56Z"/><path class="cls-3" d="M205.68,124.25v1.13l-39.71.05a.56.56,0,0,1-.56-.56h0a.56.56,0,0,1,.56-.56Z"/><path class="cls-4" d="M201.4,108.93h1.17v-1.75l-44.42.06a5.29,5.29,0,0,0-3.77,1.56,5.33,5.33,0,0,0,3.78,9.1l44.42-.06v-1.51h-1.17Z"/><path class="cls-14" d="M201.7,108.93v7.4l-40.76,0a3.64,3.64,0,0,1-3.6-3.69,3.76,3.76,0,0,1,1.05-2.62,3.53,3.53,0,0,1,2.54-1.08Z"/><path class="cls-3" d="M201.7,110.8v1.13L162,112a.57.57,0,0,1-.56-.57h0a.56.56,0,0,1,.56-.56Z"/><path class="cls-3" d="M201.71,113.59v1.13l-39.71,0a.56.56,0,0,1-.56-.56h0a.56.56,0,0,1,.56-.56Z"/><path class="cls-10" d="M209.14,98.26h1.17V96.5l-44.42.06a5.34,5.34,0,0,0-5.32,5.34,5.33,5.33,0,0,0,5.34,5.33l44.42-.06v-1.52h-1.17Z"/><path class="cls-14" d="M209.44,98.26v7.39l-40.75,0a3.65,3.65,0,0,1-3.61-3.69,3.77,3.77,0,0,1,1-2.62,3.57,3.57,0,0,1,2.55-1.08Z"/><path class="cls-3" d="M209.45,100.13v1.13l-39.71,0a.57.57,0,0,1-.56-.56h0a.56.56,0,0,1,.56-.56Z"/><path class="cls-3" d="M209.45,102.91V104l-39.7,0a.57.57,0,0,1-.57-.56h0a.58.58,0,0,1,.57-.57Z"/></g></svg>